<?xml version="1.0" encoding="UTF-8"?>
<svg width="24px" height="24px" viewBox="0 0 24 24" version="1.1" xmlns="http://www.w3.org/2000/svg" xmlns:xlink="http://www.w3.org/1999/xlink">
    <title>Favicon</title>
    <g id="Favicon" stroke="none" stroke-width="1" fill="none" fill-rule="evenodd">
        <rect fill="#FFFFFF" x="0" y="0" width="24" height="24"></rect>
        <g id="HP" transform="translate(2.000000, 6.000000)" fill-rule="nonzero">
            <polygon id="H" fill="#000000" points="2.98921622 11.6 2.98921622 7.18428571 7.30678378 7.18428571 7.30678378 11.6 9.648 11.6 9.648 0.6 7.30678378 0.6 7.30678378 4.95285714 2.98921622 4.95285714 2.98921622 0.6 0.648 0.6 0.648 11.6"></polygon>
            <path d="M13.8718267,11.6 L13.8718267,8.3 L15.5613574,8.3 C16.7454729,8.3 17.7226089,7.96214286 18.4927653,7.28642857 C19.2629218,6.61071429 19.648,5.66 19.648,4.43428571 C19.648,3.28190476 19.3014296,2.3547619 18.6082888,1.65285714 C17.915148,0.950952381 16.9717064,0.6 15.7779639,0.6 L15.7779639,0.6 L11.648,0.6 L11.648,11.6 L13.8718267,11.6 Z M15.6335596,6.14714286 L13.8718267,6.14714286 L13.8718267,2.78428571 L15.5902383,2.78428571 C16.1582286,2.78428571 16.6010686,2.92833333 16.9187581,3.21642857 C17.2364477,3.50452381 17.3952924,3.91571429 17.3952924,4.45 C17.3952924,4.95285714 17.2388544,5.36142857 16.9259783,5.67571429 C16.6131023,5.99 16.182296,6.14714286 15.6335596,6.14714286 L15.6335596,6.14714286 Z" id="P" fill="#4831F2"></path>
        </g>
    </g>
</svg>