<?xml version="1.0" standalone="no"?>
<!DOCTYPE svg PUBLIC "-//W3C//DTD SVG 1.1//EN" "http://www.w3.org/Graphics/SVG/1.1/DTD/svg11.dtd" >
<svg xmlns="http://www.w3.org/2000/svg">
<metadata>Generated by IcoMoon</metadata>
<defs>
<font id="icomoon" horiz-adv-x="1024">
<font-face units-per-em="1024" ascent="960" descent="-64" />
<missing-glyph horiz-adv-x="1024" />
<glyph unicode="&#x20;" horiz-adv-x="512" d="" />
<glyph unicode="&#xe900;" horiz-adv-x="1003" d="M334.76 832.527l-70.031 9.913c-36.854 5.216-71.201-19.755-77.632-56.44l-12.22-69.71c-3.677-20.979-16.823-39.084-35.626-49.066l-62.478-33.171c-32.88-17.456-45.998-57.861-29.652-91.322l31.061-63.584c9.348-19.135 9.348-41.515 0-60.65l-31.061-63.584c-16.346-33.461-3.226-73.866 29.652-91.322l62.478-33.171c18.801-9.983 31.948-28.089 35.626-49.066l12.22-69.71c6.431-36.684 40.778-61.656 77.632-56.44l70.031 9.913c4.357 0.617 8.721 0.786 13.041 0.575l3.689 38.72c-25.438-3.601-49.148 13.635-53.587 38.958l-25.045 120.828c-2.539 14.48-11.613 26.979-24.592 33.87l-43.126 22.897c-22.696 12.050-31.752 39.94-20.468 63.037l21.44 43.89c6.451 13.208 6.451 28.656 0 41.864l-21.44 43.89c-11.284 23.097-2.228 50.986 20.468 63.037l43.126 22.897c12.979 6.891 22.053 19.388 24.592 33.87l24.083 121.742c4.439 25.323 28.147 42.559 53.587 38.958l4.703 38.571c-6.703-1.070-13.595-1.168-20.47-0.196z" />
<glyph unicode="&#xe901;" horiz-adv-x="1003" d="M491.217-62.357c-27.255 0-54.51 10.278-75.746 30.836l-50.835 49.21c-6.489 6.284-15.332 9.16-24.283 7.897l-70.029-9.913c-5.25-0.743-10.468-1.104-15.614-1.104-52.212-0.002-97.643 37.173-106.935 90.18l-12.22 69.71c-1.563 8.915-7.038 16.46-15.025 20.7l-62.478 33.169c-52.186 27.708-72.742 91.006-46.803 144.107l31.061 63.584c3.974 8.136 3.974 17.468 0 25.602l-31.061 63.586c-25.939 53.1-5.381 116.399 46.803 144.105l62.48 33.171c7.984 4.24 13.462 11.783 15.023 20.7l12.22 69.71c10.208 58.23 64.043 97.356 122.549 89.076l70.031-9.913c8.941-1.268 17.791 1.613 24.281 7.897l50.835 49.21c42.475 41.118 109.019 41.116 151.492 0l50.833-49.21c6.491-6.284 15.338-9.166 24.283-7.897l70.029 9.913c58.514 8.276 112.341-30.846 122.551-89.076l12.22-69.71c1.563-8.915 7.038-16.46 15.023-20.7l62.478-33.169c52.186-27.708 72.744-91.008 46.803-144.107l-31.059-63.584c-3.976-8.136-3.976-17.468 0-25.602l31.061-63.586c25.941-53.098 5.383-116.397-46.803-144.105l-62.48-33.171c-7.984-4.24-13.462-11.783-15.023-20.7l-12.22-69.71c-10.208-58.23-64.045-97.358-122.551-89.076l-70.029 9.913c-8.939 1.266-17.791-1.613-24.281-7.897l-50.835-49.21c-21.237-20.556-48.491-30.836-75.746-30.836zM344.681 105.74c28.063 0 54.935-10.783 75.493-30.684l50.833-49.21c11.336-10.971 29.091-10.973 40.425 0l50.833 49.208c24.32 23.544 57.49 34.335 91.004 29.586l70.031-9.913c15.608-2.2 29.987 8.246 32.716 23.806l12.22 69.71c5.845 33.343 26.339 61.566 56.228 77.435l62.478 33.171c13.949 7.406 19.44 24.332 12.502 38.537l-31.061 63.586c-14.855 30.407-14.855 65.288 0 95.695l31.059 63.584c6.94 14.204 1.447 31.133-12.502 38.539l-62.478 33.169c-29.89 15.869-50.384 44.094-56.228 77.435l-12.22 69.71c-2.727 15.56-17.101 26.019-32.716 23.806l-70.029-9.913c-33.515-4.735-66.684 6.042-91.006 29.586l-50.833 49.21c-11.336 10.973-29.091 10.973-40.427 0l-50.833-49.208c-24.322-23.544-57.494-34.331-91.004-29.586l-70.031 9.913c-15.621 2.206-29.987-8.246-32.714-23.806l-12.22-69.71c-5.845-33.343-26.339-61.566-56.226-77.435l-62.48-33.171c-13.949-7.406-19.442-24.332-12.504-38.537l31.061-63.584c14.855-30.407 14.855-65.288 0-95.697l-31.061-63.584c-6.938-14.204-1.447-31.131 12.504-38.539l62.478-33.169c29.89-15.871 50.384-44.094 56.228-77.435l12.22-69.71c2.727-15.558 17.093-26.027 32.714-23.806l70.031 9.913c5.19 0.735 10.374 1.098 15.516 1.098z" />
<glyph unicode="&#xe902;" horiz-adv-x="1003" d="M493.213 362.988c-22.049 0-39.922 17.873-39.922 39.922v243.524c0 22.049 17.873 39.922 39.922 39.922s39.922-17.873 39.922-39.922v-243.524c0-22.047-17.873-39.922-39.922-39.922zM493.213 205.296c27.56 0 49.903 22.342 49.903 49.903s-22.342 49.903-49.903 49.903c-27.56 0-49.903-22.342-49.903-49.903s22.342-49.903 49.903-49.903z" />
<glyph unicode="&#xe903;" d="M1024 448c0-282.77-229.23-512-512-512s-512 229.23-512 512c0 282.77 229.23 512 512 512s512-229.23 512-512z" />
<glyph unicode="&#xe904;" d="M543.244 363.339l11.231 340.661h-97.332l11.231-340.661h74.871zM505.809 228.571c12.978 0 24.333 4.867 34.066 14.6s14.6 21.089 14.6 34.066c0 12.978-4.867 24.333-14.6 34.066s-21.089 14.6-34.066 14.6c-12.978 0-24.333-4.867-34.066-14.6s-14.6-21.089-14.6-34.066c0-12.978 4.867-24.333 14.6-34.066s21.089-14.6 34.066-14.6z" />
<glyph unicode="&#xe905;" glyph-name="close" d="M94.083 30.431c16.026-16.030 37.026-24.041 58.029-24.041s42.006 8.015 58.029 24.041l301.684 301.684 301.687-301.684c16.022-16.030 37.026-24.041 58.029-24.041s42.002 8.015 58.029 24.041c32.049 32.041 32.049 84.005 0 116.054l-301.691 301.684 301.684 301.687c32.049 32.049 32.049 84.013 0 116.058-32.041 32.049-84.005 32.049-116.054 0l-301.687-301.687-301.684 301.687c-32.049 32.049-84.013 32.049-116.058 0-32.049-32.049-32.049-84.009 0-116.058l301.687-301.687-301.687-301.684c-32.045-32.049-32.045-84.013 0.004-116.054zM871.544 4.47c-22.436 0-43.523 8.735-59.385 24.605l-300.331 300.331-300.327-300.331c-15.862-15.869-36.953-24.605-59.385-24.605s-43.523 8.735-59.385 24.605c-15.862 15.862-24.597 36.949-24.597 59.377 0 22.432 8.735 43.52 24.597 59.385l300.331 300.331-300.331 300.331c-32.742 32.746-32.742 86.024 0 118.77 15.862 15.862 36.949 24.597 59.385 24.597 22.432 0 43.523-8.735 59.385-24.597l300.331-300.331 300.331 300.331c15.865 15.862 36.953 24.597 59.385 24.597 22.428 0 43.516-8.735 59.377-24.597 15.865-15.862 24.597-36.953 24.597-59.385s-8.732-43.523-24.597-59.385l-300.331-300.331 300.339-300.331c15.865-15.865 24.601-36.953 24.601-59.385 0-22.428-8.735-43.516-24.601-59.377-15.873-15.865-36.96-24.605-59.389-24.605zM511.828 334.824l303.040-303.040c15.134-15.141 35.263-23.482 56.676-23.482 21.405 0 41.535 8.341 56.676 23.482 15.137 15.134 23.478 35.259 23.478 56.669s-8.341 41.539-23.478 56.676l-303.048 303.040 303.040 303.040c15.137 15.137 23.474 35.267 23.474 56.676s-8.337 41.535-23.474 56.672c-15.134 15.137-35.259 23.474-56.669 23.474s-41.539-8.337-56.676-23.474l-303.040-303.040-303.040 303.040c-15.137 15.137-35.267 23.474-56.676 23.474s-41.535-8.337-56.672-23.474c-31.248-31.252-31.248-82.097 0-113.349l303.040-303.040-303.040-303.040c-15.137-15.137-23.474-35.267-23.474-56.676s8.337-41.535 23.474-56.669c15.141-15.141 35.267-23.482 56.676-23.482s41.535 8.341 56.676 23.482l303.036 303.040z" />
<glyph unicode="&#xe906;" horiz-adv-x="1125" d="M116.384 141.227c0 223.24-115.704 376.377-115.704 483.914s61.709 333.499 556.512 333.499c494.803 0 567.402-303.779 567.402-422.205 0-553.789-1008.21-790.415-1008.21-395.207z" />
<glyph unicode="&#xe907;" horiz-adv-x="1125" d="M861.198 153.251h-597.122c-35.619 0-64.431 28.812-64.431 64.431v484.14h725.984v-483.914c0-35.619-28.812-64.658-64.431-64.658z" />
<glyph unicode="&#xe908;" horiz-adv-x="1125" d="M925.629 701.822h-725.984v48.323c0 35.619 28.812 64.431 64.431 64.431h596.895c35.619 0 64.431-28.812 64.431-64.431v-48.323h0.227z" />
<glyph unicode="&#xe909;" horiz-adv-x="1125" d="M780.432 266.232c-26.771 0-48.323-21.553-48.323-48.323v64.431c0 26.771-21.553 48.323-48.323 48.323s-48.323-16.108-48.323-16.108c0 26.771-21.553 48.323-48.323 48.323-20.191 0-37.207-12.251-44.693-29.72l-3.857 174.917c0 26.771-21.553 48.323-48.323 48.323s-48.323-21.553-48.323-48.323v-330.096c-21.326 28.812-61.709 71.918-112.981 71.918-48.323 0-64.431-17.469-64.431-32.216 0-37.207 39.929-50.592 84.169-153.364h480.51v153.364c-0.454 26.998-22.006 48.55-48.777 48.55z" />
<glyph unicode="&#xe90a;" horiz-adv-x="1125" d="M206.452 719.291h712.371v-34.711h-712.371v34.711z" />
<glyph unicode="&#xe90b;" horiz-adv-x="1125" d="M521.12 240.822v73.96c0 36.299 29.493 65.792 65.792 65.792s65.792-29.493 65.792-65.792v-25.409h-34.711v25.409c0 17.015-13.839 31.081-31.081 31.081-17.015 0-31.081-13.839-31.081-31.081v-73.96h-34.711z" />
<glyph unicode="&#xe90c;" horiz-adv-x="1125" d="M617.767 208.607v73.96c0 36.299 29.493 65.792 65.792 65.792s65.792-29.493 65.792-65.792v-57.625h-34.711v57.625c0 17.015-13.839 31.081-31.081 31.081-17.015 0-31.081-13.839-31.081-31.081v-73.96h-34.711z" />
<glyph unicode="&#xe90d;" horiz-adv-x="1125" d="M811.514 71.351v146.558c0 17.015-13.839 31.081-31.081 31.081s-31.081-13.839-31.081-31.081v-41.517h-34.711v41.517c0 36.299 29.493 65.792 65.792 65.792s65.792-29.493 65.792-65.792v-146.558h-34.711z" />
<glyph unicode="&#xe90e;" horiz-adv-x="1125" d="M62.616 684.58c-22.914 0-41.517 18.603-41.517 41.517s18.603 41.517 41.517 41.517c22.914 0 41.517-18.603 41.517-41.517s-18.603-41.517-41.517-41.517zM62.616 749.011c-12.705 0-22.914-10.209-22.914-22.914s10.209-22.914 22.914-22.914c12.705 0 22.914 10.209 22.914 22.914s-10.436 22.914-22.914 22.914z" />
<glyph unicode="&#xe90f;" horiz-adv-x="1125" d="M908.16 136.009v614.364c0 26.090-21.099 47.189-47.189 47.189h-596.895c-26.090 0-47.189-21.099-47.189-47.189v-420.617h-34.711v420.617c0 45.147 36.753 81.9 81.9 81.9h596.895c45.147 0 81.9-36.753 81.9-81.9v-614.364h-34.711z" />
<glyph unicode="&#xe910;" horiz-adv-x="1125" d="M329.642 63.864c-21.099 47.643-41.063 74.186-55.81 93.924-15.881 21.326-27.224 36.526-27.224 60.121 0 8.394 3.857 49.685 81.9 49.685 28.812 0 57.398-11.343 84.396-33.577l11.117-9.075v283.361c0 36.299 29.493 65.792 65.792 65.792s65.792-29.493 65.792-65.792v-186.714h-34.711v186.714c0 17.015-13.839 31.081-31.081 31.081s-31.081-13.839-31.081-31.081v-330.096c0-7.487-4.764-14.066-12.024-16.562-1.815-0.681-3.63-0.907-5.445-0.907-5.445 0-10.663 2.496-13.839 7.033-17.923 24.275-54.676 64.885-98.915 64.885-41.971 0-46.962-13.385-46.962-14.066l-0.454-1.134v-1.134c0.227-10.209 6.125-18.376 20.645-37.66 14.973-19.965 36.98-49.685 59.894-100.957l-31.989-13.839z" />
<glyph unicode="&#xe911;" horiz-adv-x="1125" d="M53.088 90.181h1018.873v-34.711h-1018.873v34.711z" />
<glyph unicode="&#xe912;" horiz-adv-x="1173" d="M499.015 880c0 0-78.639-23.634-107.893-71.093-19.503-31.64-89.877-151.899-211.123-360.779l204.071-337.748c30.859-53.421 65.383-82.684 103.572-87.79 1.159-0.155 9.779-20.403 10.928-20.804 38.922-13.602 21.182-27.714-53.219-42.334l-128.298 53.704-231.632 434.784c109.042 196.041 163.563 294.061 163.563 294.061s35.65 58.080 106.95 174.239l184.608 23.162c-27.685-39.601-41.527-59.401-41.527-59.401z" />
<glyph unicode="&#xe913;" horiz-adv-x="1173" d="M841.143 917.333c9.477 0 17.186-3.536 23.126-10.609v0l258.33-443.892c2.995-4.947 5.019-9.801 5.019-14.832s-2.025-9.886-5.019-14.832v0l-258.33-443.892c-5.941-7.073-13.649-10.609-23.126-10.609v0h-512c-9.477 0-17.186 3.536-23.126 10.609v0l-258.33 443.892c-2.995 4.947-5.019 9.801-5.019 14.832s2.025 9.886 5.019 14.832v0l258.33 443.892c5.941 7.073 13.649 10.609 23.126 10.609v0z" />
<glyph unicode="&#xe914;" horiz-adv-x="1173" d="M666.667 448c0-41.237-33.429-74.667-74.667-74.667s-74.667 33.429-74.667 74.667c0 41.237 33.429 74.667 74.667 74.667s74.667-33.429 74.667-74.667z" />
<glyph unicode="&#xe915;" horiz-adv-x="1173" d="M571.733 684.8l-270.222-202.667c-18.851-14.138-22.672-40.882-8.533-59.733 2.426-3.234 5.299-6.108 8.533-8.533l270.222-202.667c15.17-11.378 36.030-11.378 51.2 0l270.222 202.667c18.851 14.138 22.672 40.882 8.533 59.733-2.426 3.234-5.299 6.108-8.533 8.533l-270.222 202.667c-15.17 11.378-36.030 11.378-51.2 0zM433.934 482.954l138.931 97.252c14.691 10.284 34.244 10.284 48.935 0l138.931-97.252c19.305-13.513 23.999-40.117 10.486-59.422-2.856-4.081-6.405-7.63-10.486-10.486l-138.931-97.252c-14.691-10.284-34.244-10.284-48.935 0l-138.931 97.252c-19.305 13.513-23.999 40.117-10.486 59.422 2.856 4.081 6.405 7.63 10.486 10.486z" />
<glyph unicode="&#xe916;" d="M162 176v544c0 110.458 89.542 200 200 200h-122c-110.458 0-200-89.542-200-200v-544c0-110.456 89.542-200 200-200h122c-110.458 0-200 89.544-200 200z" />
<glyph unicode="&#xe917;" d="M784-64h-544c-132.336 0-240 107.664-240 240v544c0 132.336 107.664 240 240 240h544c132.336 0 240-107.664 240-240v-544c0-132.336-107.664-240-240-240zM240 880c-88.224 0-160-71.776-160-160v-544c0-88.224 71.776-160 160-160h544c88.224 0 160 71.776 160 160v544c0 88.224-71.776 160-160 160h-544zM242 150v168c0 22.092-17.908 40-40 40s-40-17.908-40-40v-168c0-22.092 17.908-40 40-40s40 17.908 40 40zM708 150v334c0 22.092-17.908 40-40 40s-40-17.908-40-40v-334c0-22.092 17.908-40 40-40s40 17.908 40 40zM864 150v88c0 22.092-17.908 40-40 40s-40-17.908-40-40v-88c0-22.092 17.908-40 40-40s40 17.908 40 40z" />
<glyph unicode="&#xe918;" d="M512 110c-22.092 0-40 17.908-40 40v594c0 22.092 17.908 40 40 40s40-17.908 40-40v-594c0-22.092-17.908-40-40-40zM398 150v454c0 22.092-17.908 40-40 40s-40-17.908-40-40v-454c0-22.092 17.908-40 40-40s40 17.908 40 40z" />
<glyph unicode="&#xe919;" d="M334.45 920.348l-94.45-0.348c-110.458 0-200-89.542-200-200v-544c0-110.458 89.542-200 200-200l104.116 0.626c-103.030 8.098-184.116 94.264-184.116 199.374v544c0 101.8 76.058 187.534 174.45 200.348v0z" />
<glyph unicode="&#xe91a;" d="M784-64h-544c-132.336 0-240 107.664-240 240v544c0 132.336 107.664 240 240 240h544c132.336 0 240-107.664 240-240v-544c0-132.336-107.664-240-240-240zM240 880c-88.224 0-160-71.776-160-160v-544c0-88.224 71.776-160 160-160h544c88.224 0 160 71.776 160 160v544c0 88.224-71.776 160-160 160h-544zM864 702c0 22.092-17.908 40-40 40h-624c-22.092 0-40-17.908-40-40s17.908-40 40-40h624c22.092 0 40 17.908 40 40zM305.484 314c-66.168 0-120 53.832-120 120s53.832 120 120 120c66.168 0 120-53.832 120-120s-53.832-120-120-120zM305.484 474c-22.056 0-40-17.944-40-40s17.944-40 40-40c22.056 0 40 17.944 40 40s-17.944 40-40 40zM864 476c0 22.092-17.908 40-40 40h-272c-22.092 0-40-17.908-40-40s17.908-40 40-40h272c22.092 0 40 17.908 40 40zM864 336c0 22.092-17.908 40-40 40h-272c-22.092 0-40-17.908-40-40s17.908-40 40-40h272c22.092 0 40 17.908 40 40zM764 196c0 22.092-17.908 40-40 40h-172c-22.092 0-40-17.908-40-40s17.908-40 40-40h172c22.092 0 40 17.908 40 40z" />
<glyph unicode="&#xe91b;" d="M200.010 154c-10.836 0-21.636 4.376-29.526 13.004-14.91 16.3-13.782 41.602 2.52 56.512 32.772 29.976 75.332 46.484 119.842 46.484h25.276c44.508 0 87.068-16.508 119.842-46.484 16.302-14.91 17.43-40.21 2.52-56.512-14.91-16.3-40.214-17.428-56.512-2.52-17.99 16.454-41.376 25.516-65.85 25.516h-25.276c-24.474 0-47.86-9.062-65.85-25.516-7.674-7.020-17.344-10.484-26.986-10.484v0z" />
<glyph unicode="&#xe91c;" horiz-adv-x="896" d="M342.216 21.742c-24.372 116.804-104.452 203.848-151.935 322.229-58.657 146.239-31.472 296.415-15.858 382.542 1.978 31.999-17.482 61.239-49.033 67.163l-0.67 0.125c-32.688 6.133-64.285-15.139-70.774-47.757-16.557-83.236-35.883-237.991 12.806-398.592 34.959-115.31 137.83-219.975 167.023-322.229 8.8-30.82 36.973-52.059 69.026-52.059 25.631 0 32.925 13.424 45.623 33.568-2.589 4.683-5.080 9.604-6.208 15.012z" />
<glyph unicode="&#xe91d;" horiz-adv-x="896" d="M873.882 752.803c-10.161 51.096-60.114 84.843-111.381 75.213l-0.642-0.12c-48.32-9.073-80.839-52.914-77.321-104.24 0.545-7.94 1.318-16.918 2.14-26.425 4.434-51.396 11.211-130.054-4.403-215.055-1.743 1.734-3.525 3.428-5.397 5.031-20.819 17.851-48.099 26.15-76.799 23.352-31.334-3.048-59.214-20.379-76.489-47.549-8.25-12.978-11.948-26.491-15.208-38.412-0.515-1.882-1.032-3.772-1.572-5.668-23.829-83.719-58.565-130.872-92.155-176.471-26.583-36.085-51.688-70.168-65.718-116.438-0.2-0.662-0.383-1.33-0.543-2.004-5.816-24.313-8.33-49.194-7.916-78.298 0.141-9.869-3.666-19.245-10.72-26.4-7.207-7.31-16.78-11.335-26.957-11.335-16.423 0-31.040 11.021-35.545 26.801-15.722 55.076-48.734 107.281-83.684 162.552-32.983 52.164-67.092 106.103-83.498 160.22-43.868 144.696-30.726 287.436-11.979 381.699 2.745 13.819 16.296 22.948 30.155 20.339 16.535-3.123 22.299-18.265 21.414-31.179-0.501-7.324-1.045-15.619-2.044-25.189-30.424-291.363 81.847-427.888 83.2-430.034 6.619-10.511 17.931-16.27 29.496-16.27 6.342 0 12.757 1.73 18.519 5.358 16.274 10.245 21.157 31.743 10.914 48.015-29.008 46.072-31.975 77.232-31.16 91.706 0.789 14.049 5.597 25.533 13.535 32.344 6.473 5.548 14.789 7.876 24.727 6.904 12.815-1.246 20.379-9.173 24.466-15.6 2.622-4.124 4.659-11.566 6.812-19.446 0.576-2.105 1.156-4.22 1.758-6.339 6.144-21.589 14.214-44.403 23.336-65.974 7.493-17.712 27.918-25.996 45.63-18.505s25.996 27.918 18.507 45.628c-8.032 18.993-15.121 39.020-20.497 57.914-0.538 1.887-1.051 3.772-1.565 5.649-3.262 11.928-6.962 25.448-15.215 38.435-17.275 27.168-45.155 44.5-76.489 47.549-28.719 2.794-55.981-5.501-76.799-23.352-1.87-1.603-3.652-3.297-5.397-5.031-15.614 85.005-8.837 163.665-4.401 215.061 0.822 9.503 1.595 18.481 2.14 26.42 3.51 51.326-29.725 95.301-78 104.365-51.236 9.615-101.187-24.115-111.345-75.187-20.299-102.064-34.412-256.998 13.638-415.486 19.144-63.152 55.818-121.147 91.283-177.233 32.196-50.917 62.607-99.009 75.58-144.453 12.996-45.524 55.147-77.319 102.503-77.319 28.966 0 56.152 11.394 76.546 32.083 20.246 20.535 31.169 47.627 30.761 76.28-0.326 22.736 1.511 41.865 5.771 60.090 10.642 34.36 31.143 62.186 54.841 94.357 33.766 45.839 75.791 102.884 103.063 198.705 0.606 2.124 1.187 4.246 1.765 6.358 2.153 7.872 4.187 15.309 6.807 19.428 4.088 6.429 11.65 14.355 24.466 15.602 9.939 0.966 18.257-1.358 24.727-6.906 7.94-6.809 12.747-18.295 13.535-32.344 0.815-14.474-2.152-45.634-31.16-91.706-10.245-16.272-5.36-37.77 10.914-48.015 16.272-10.243 37.768-5.362 48.015 10.914 1.353 2.147 118.51 138.671 83.202 430.024-1.158 9.556-1.542 17.87-2.044 25.196-0.884 12.914 5.216 28.136 20.727 31.048l0.642 0.12c13.908 2.613 27.455-6.523 30.206-20.36 18.744-94.256 31.881-236.982-11.986-381.671-16.385-54.045-50.416-108.362-83.327-160.89-47.825-76.33-92.998-148.429-92.998-225.844 0-19.23 15.588-34.817 34.817-34.817s34.817 15.588 34.817 34.817c0 57.402 40.011 121.262 82.371 188.873 35.338 56.399 71.877 114.718 90.957 177.658 48.046 158.481 33.94 313.403 13.645 415.458z" />
<glyph unicode="&#xe91e;" horiz-adv-x="896" d="M562.497 538.173c-15.503 0-29.659 10.405-33.755 26.107-8.054 30.881-36.143 52.447-68.307 52.447h-19.526c-32.163 0-60.253-21.567-68.308-52.447-4.868-18.655-23.935-29.83-42.591-24.969-18.655 4.866-29.833 23.935-24.967 42.589 16.072 61.613 71.942 104.643 135.866 104.643h19.526c63.924 0 119.794-43.031 135.866-104.643 4.866-18.655-6.312-37.723-24.967-42.589-2.955-0.77-5.921-1.138-8.837-1.138z" />
<glyph unicode="&#xe91f;" horiz-adv-x="896" d="M455.907 724.945c-60.634 0-109.964 49.33-109.964 109.964s49.33 109.964 109.964 109.964c60.634 0 109.964-49.33 109.964-109.964s-49.328-109.964-109.964-109.964v0zM455.907 875.055c-22.136 0-40.145-18.010-40.145-40.145s18.010-40.145 40.145-40.145c22.136 0 40.145 18.010 40.145 40.145s-18.008 40.145-40.145 40.145z" />
<glyph unicode="&#xe920;" d="M162.26 538c0 191.254 140.552 349.68 324 377.622-18.912 2.882-38.282 4.378-58 4.378-210.972 0-382-171.028-382-382s171.028-382 382-382c19.718 0 39.088 1.496 58 4.376-183.446 27.944-324 186.368-324 377.624z" />
<glyph unicode="&#xe921;" d="M422 116c-232.692 0-422 189.308-422 422s189.308 422 422 422c232.692 0 422-189.308 422-422s-189.308-422-422-422zM422 880c-188.58 0-342-153.42-342-342s153.42-342 342-342c188.58 0 342 153.42 342 342s-153.42 342-342 342zM425.838 520c-69.476 0-126 56.524-126 126s56.524 126 126 126c69.476 0 126-56.524 126-126s-56.522-126-126-126v0zM425.838 692c-25.364 0-46-20.636-46-46s20.636-46 46-46c25.364 0 46 20.636 46 46s-20.634 46-46 46z" />
<glyph unicode="&#xe922;" d="M547.972 305.99c-17.764 0-33.984 11.922-38.678 29.914-9.228 35.384-41.414 60.096-78.268 60.096h-22.374c-36.854 0-69.040-24.712-78.27-60.096-5.578-21.376-27.426-34.18-48.802-28.61-21.376 5.576-34.184 27.426-28.608 48.8 18.416 70.598 82.434 119.904 155.68 119.904h22.374c73.246 0 137.264-49.306 155.68-119.904 5.576-21.376-7.232-43.224-28.608-48.8-3.386-0.882-6.784-1.304-10.126-1.304zM1012.364-52.206c15.578 15.664 15.506 40.99-0.158 56.568l-180 179c-15.664 15.578-40.99 15.504-56.568-0.158-15.578-15.664-15.506-40.99 0.158-56.568l180-179c7.802-7.762 18.002-11.636 28.204-11.636 10.272 0 20.546 3.936 28.364 11.794z" />
<glyph unicode="&#xe923;" d="M294.874 236.33l-54.874-0.33c-110.458 0-200 89.542-200 200v284c0 110.458 89.544 200 200 200l94.45 0.348c-98.39-12.814-174.45-98.548-174.45-200.348v-284c0-88.080 56.946-162.846 136.022-189.53-0.372-3.38-0.756-6.76-1.148-10.14zM538 158c0 100.516 81.484 182 182 182h-120c-100.516 0-182-81.484-182-182s81.484-182 182-182h120c-100.514 0-182 81.484-182 182z" />
<glyph unicode="&#xe924;" d="M272 196h-32c-132.334 0-240 107.664-240 240v284c0 132.336 107.666 240 240 240h544c132.336 0 240-107.664 240-240v-284c0-22.092-17.908-40-40-40s-40 17.908-40 40v284c0 88.224-71.776 160-160 160h-544c-88.224 0-160-71.776-160-160v-284c0-88.224 71.776-160 160-160h32c22.092 0 40-17.908 40-40s-17.908-40-40-40zM999.308-60.956c14.946 6.192 24.692 20.778 24.692 36.956v182c0 122.412-99.588 222-222 222h-202c-122.412 0-222-99.588-222-222s99.588-222.002 222-222.002h161.116c41.318 0 80.802 9.228 117.348 27.424 10.342 5.148 21.546 6.552 32.56 6.552 32.976 0 46.668-33.976 72.984-33.976 5.154 0 10.352 0.998 15.3 3.046v0zM802 300c78.298 0 142-63.702 142-142v-112.75c-33.076 8.836-69.036 5.796-101.192-10.214-25.372-12.63-52.856-19.036-81.712-19.036-0.032 0-0.064 0-0.096 0h-161c-78.298 0-142 63.702-142 142s63.702 142 142 142h202z" />
<glyph unicode="&#xe925;" d="M456.16 405.91c-15.694 0-31.398 4.084-45.784 12.27-29.040 16.524-46.376 46.256-46.376 79.534v156.57c0 33.28 17.336 63.012 46.376 79.536 29.286 16.662 64.056 16.336 93.014-0.872l131.736-78.286c28.1-16.7 44.874-46.106 44.874-78.662s-16.776-61.962-44.876-78.664l-131.734-78.286c-0.002 0-0.002 0-0.002 0-14.73-8.756-30.972-13.14-47.228-13.14zM456.184 666.002c-2.67 0-4.868-0.93-6.244-1.712-2.708-1.542-5.94-4.53-5.94-10.004v-156.57c0-5.474 3.23-8.46 5.94-10.004 2.364-1.344 7.142-3.12 12.582 0.114l131.732 78.286c4.75 2.822 5.746 6.936 5.746 9.89s-0.996 7.068-5.746 9.89l-131.734 78.286c-2.268 1.348-4.424 1.824-6.336 1.824v0zM622 208c27.614 0 50-22.386 50-50s-22.386-50-50-50c-27.614 0-50 22.386-50 50s22.386 50 50 50zM782 208c27.614 0 50-22.386 50-50s-22.386-50-50-50c-27.614 0-50 22.386-50 50s22.386 50 50 50z" />
<glyph unicode="&#xe926;" glyph-name="contact-telegram" horiz-adv-x="1117" d="M894.446-37.26c-8.641 0-17.224 2.557-24.586 7.549l-278.157 188.68-149.188-107.348c-11.701-8.413-26.782-10.533-40.368-5.675-13.569 4.869-23.874 16.109-27.552 30.045l-74.909 283.884-267.659 102.345c-16.85 6.446-28.025 22.566-28.149 40.607-0.122 18.041 10.832 34.313 27.6 40.987l1017.737 404.965c4.618 1.962 9.505 3.094 14.433 3.398 1.763 0.105 3.532 0.105 5.29 0.006 10.206-0.607 20.231-4.764 28.054-12.436 0.812-0.794 1.582-1.606 2.312-2.452 6.481-7.403 10.042-16.43 10.714-25.626 0.163-2.312 0.152-4.653-0.053-6.995-0.14-1.67-0.38-3.334-0.718-4.986l-171.789-901.357c-2.762-14.48-12.617-26.601-26.233-32.247-5.401-2.242-11.105-3.346-16.78-3.346zM616.126 248.23l247.773-168.064 133.669 701.356-482.776-464.554 100.167-67.95c0.403-0.251 0.788-0.52 1.168-0.788zM409.866 285.603l33.175-125.705 71.476 51.432-93.593 63.489c-4.35 2.943-8.075 6.609-11.058 10.784zM168.154 503.943l183.787-70.268c13.166-5.033 23.103-16.103 26.7-29.73l23.308-88.332c1.068 10.188 5.687 19.775 13.189 26.998l460.017 442.647-707.001-281.315z" />
<glyph unicode="&#xe927;" glyph-name="contact-viber" horiz-adv-x="939" d="M105.554 851.169c156.294 148.42 597.488 130.005 728.128 5.588v0c80.898-72.897 125.771-233.975 95.461-489.116-29.125-247.183-209.252-271.016-241.087-281.684-13.758-4.572-134.831-35.898-292.479-22.225-94.276-112.606-107.992-131.867-138.302-122.046-23.188 7.297-24.887 39.972-24.95 48.027l0.016 1.799 0.212 102.404c-230.546 67.056-227.328 314.238-224.619 446.19 2.709 131.91 27.432 238.462 97.62 311.063zM782.459 805.238c-98.551 92.625-485.348 121.369-622.465-7.197-59.436-60.748-79.586-150.96-81.703-261.11-2.117-110.108-13.631-320.588 181.651-376.552 0 0-0.653-134.033-0.75-164.744l-0.012-5.265c-0.169-20.828 10.964-21.802 21.124-11.303 31.030 32.3 130.809 156.717 130.809 156.717 133.688-8.932 240.155 18.457 251.628 22.267 26.839 8.932 172.803 22.013 197.568 228.344-0.254 10.287 42.629 312.037-77.85 418.843zM279.331 739.071c17.611 9.525 34.544 6.35 45.804-7.747 10.71-14.986 31.75-34.501 63.076-91.101 11.726-21.632 4.445-43.645-7.070-52.789v0l-23.029-19.050c-11.684-9.694-10.118-27.77-10.118-27.77s34.12-133.518 161.712-167.258c0 0 17.484-1.609 26.839 10.499v0l18.415 23.833c8.805 11.896 30.099 19.431 51.011 7.324 28.194-16.468 64.092-42.079 87.883-65.278 13.42-11.303 16.468-28.575 7.281-46.82v0c-20.701-38.015-59.478-79.671-99.356-66.378v0l-0.381 0.593c-40.47 11.726-135.804 62.526-196.044 112.098-128.184 104.817-168.401 243.542-190.287 287.060-12.827 41.275 27.262 81.364 63.881 102.785v0zM466.316 773.869c141.392-0.974 255.099-101.98 256.454-276.181v0c0.254-17.060-24.722-17.272-24.722-0.212-1.143 161.67-105.282 249.807-231.731 250.781-16.298 0.212-16.298 25.611 0 25.611zM488.964 707.194c111.294-8.34 170.517-87.46 168.443-183.514-0.212-17.060-25.146-16.256-24.765 0.593 1.947 84.116-48.895 149.986-145.414 157.31-16.256 1.185-14.563 26.797 1.736 25.611zM507.76 638.318c53.509-2.963 83.227-34.713 85.936-91.693 0.762-17.060-24.003-18.246-24.765-1.185-2.117 43.645-21.844 64.897-62.526 67.267-16.468 0.974-14.944 26.585 1.355 25.611z" />
<glyph unicode="&#xe928;" glyph-name="contact-whatsapp" d="M743.888 349.451l-0.381-3.172c-92.991 46.347-102.717 52.521-114.727 34.507-8.331-12.475-32.604-40.765-39.92-49.138-7.4-8.246-14.758-8.88-27.318-3.172-12.686 6.343-53.409 19.664-101.618 62.797-37.552 33.619-62.755 74.849-70.198 87.536-12.39 21.398 13.532 24.442 37.129 69.098 4.229 8.88 2.072 15.858-1.057 22.159-3.172 6.343-28.417 68.506-38.989 93.287-10.149 24.696-20.594 21.567-28.417 21.567-24.358 2.114-42.161 1.776-57.85-14.547-68.252-75.019-51.041-152.405 7.358-234.697 114.769-150.206 175.917-177.862 287.726-216.26 30.193-9.599 57.723-8.246 79.501-5.117 24.273 3.848 74.723 30.489 85.252 60.302 10.783 29.813 10.783 54.551 7.612 60.26-3.129 5.709-11.418 8.88-24.104 14.589v0zM871.301 808.612c-325.151 314.325-863.263 86.352-863.474-357.078 0-88.635 23.216-175.071 67.449-251.401l-71.72-260.577 267.893 69.859c334.285-180.569 746.844 59.203 747.014 441.865 0 134.306-52.437 260.704-147.796 355.682l0.634 1.649zM933.971 452.675c-0.254-322.783-354.583-524.368-634.824-359.615l-15.224 9.050-158.579-41.231 42.499 154.139-10.107 15.858c-174.395 277.619 25.965 640.448 356.317 640.448 112.232 0 217.571-43.768 296.902-123.057 79.29-78.613 123.015-183.952 123.015-295.592z" />
</font>
</defs>
</svg>
