<?xml version="1.0" encoding="UTF-8"?>
<svg width="153px" height="32px" viewBox="0 0 153 32" version="1.1" xmlns="http://www.w3.org/2000/svg" xmlns:xlink="http://www.w3.org/1999/xlink">
    <title>Hypelitix</title>
    <g id="Home" stroke="none" stroke-width="1" fill="none" fill-rule="evenodd">
        <g id="Home-2550" transform="translate(-547.000000, -38.000000)" fill-rule="nonzero">
            <g id="Header" transform="translate(0.000000, 0.000000)">
                <g id="Top" transform="translate(545.000000, 34.000000)">
                    <g id="Hypelitix" transform="translate(2.856000, 4.180000)">
                        <path d="M5.236,24.82 L5.236,15.266 L14.892,15.266 L14.892,24.82 L20.128,24.82 L20.128,1.02 L14.892,1.02 L14.892,10.438 L5.236,10.438 L5.236,1.02 L3.12638804e-13,1.02 L3.12638804e-13,24.82 L5.236,24.82 Z M29.648,30.362 C31.1666667,30.362 32.368,29.9823333 33.252,29.223 C34.136,28.4636667 34.9293333,27.1433333 35.632,25.262 L35.632,25.262 L42.636,6.596 L37.264,6.596 L33.286,19.006 L29.138,6.596 L23.664,6.596 L30.804,24.888 C30.4186667,25.6813333 29.818,26.078 29.002,26.078 C28.322,26.078 27.5853333,25.84 26.792,25.364 L26.792,25.364 L25.058,29.104 C26.486,29.9426667 28.016,30.362 29.648,30.362 Z M50.864,30.26 L50.864,22.44 C52.3826667,24.2533333 54.2753333,25.16 56.542,25.16 C58.8313333,25.16 60.7863333,24.3156667 62.407,22.627 C64.0276667,20.9383333 64.838,18.6433333 64.838,15.742 C64.838,12.818 64.022,10.506 62.39,8.806 C60.758,7.106 58.8086667,6.256 56.542,6.256 C54.2073333,6.256 52.3146667,7.242 50.864,9.214 L50.864,9.214 L50.864,6.596 L45.696,6.596 L45.696,30.26 L50.864,30.26 Z M55.216,20.774 C53.9693333,20.774 52.9153333,20.3093333 52.054,19.38 C51.2153333,18.428 50.796,17.2153333 50.796,15.742 C50.796,14.2233333 51.221,12.9936667 52.071,12.053 C52.921,11.1123333 53.9693333,10.642 55.216,10.642 C56.4626667,10.642 57.5166667,11.1123333 58.378,12.053 C59.2393333,12.9936667 59.67,14.2006667 59.67,15.674 C59.67,17.1926667 59.2393333,18.4223333 58.378,19.363 C57.5166667,20.3036667 56.4626667,20.774 55.216,20.774 Z M77.282,25.228 C80.41,25.228 82.892,24.0946667 84.728,21.828 L84.728,21.828 L81.77,19.21 C80.4326667,20.4566667 78.9593333,21.08 77.35,21.08 C76.1713333,21.08 75.1966667,20.774 74.426,20.162 C73.6553333,19.55 73.1453333,18.666 72.896,17.51 L72.896,17.51 L85.578,17.51 C85.6233333,16.8753333 85.646,16.422 85.646,16.15 C85.646,13.362 84.8866667,11.016 83.368,9.112 C81.8493333,7.208 79.6506667,6.256 76.772,6.256 C74.1653333,6.256 72.012,7.174 70.312,9.01 C68.612,10.846 67.762,13.09 67.762,15.742 C67.762,18.5526667 68.6573333,20.8363333 70.448,22.593 C72.2386667,24.3496667 74.5166667,25.228 77.282,25.228 Z M80.614,14.28 L72.828,14.28 C73.032,13.0786667 73.4796667,12.1323333 74.171,11.441 C74.8623333,10.7496667 75.7293333,10.404 76.772,10.404 C77.8373333,10.404 78.7043333,10.7553333 79.373,11.458 C80.0416667,12.1606667 80.4553333,13.1013333 80.614,14.28 L80.614,14.28 Z" id="Hype" fill="#000000"></path>
                        <path d="M94.894,24.82 L94.894,-1.24344979e-14 L89.726,-1.24344979e-14 L89.726,24.82 L94.894,24.82 Z M105.298,4.59 L105.298,-1.24344979e-14 L99.858,-1.24344979e-14 L99.858,4.59 L105.298,4.59 Z M105.162,24.82 L105.162,6.596 L99.994,6.596 L99.994,24.82 L105.162,24.82 Z M116.178,25.126 C117.719333,25.126 119.079333,24.7746667 120.258,24.072 L120.258,24.072 L120.258,19.924 C119.464667,20.3546667 118.614667,20.57 117.708,20.57 C116.597333,20.57 116.042,19.9806667 116.042,18.802 L116.042,18.802 L116.042,11.016 L120.326,11.016 L120.326,6.596 L116.042,6.596 L116.042,1.938 L110.874,1.938 L110.874,6.596 L108.698,6.596 L108.698,11.016 L110.874,11.016 L110.874,19.652 C110.874,21.6466667 111.333,23.0576667 112.251,23.885 C113.169,24.7123333 114.478,25.126 116.178,25.126 Z M129.676,4.59 L129.676,-1.24344979e-14 L124.236,-1.24344979e-14 L124.236,4.59 L129.676,4.59 Z M129.54,24.82 L129.54,6.596 L124.372,6.596 L124.372,24.82 L129.54,24.82 Z M138.278,24.82 L141.95,19.142 L145.622,24.82 L151.164,24.82 L144.738,15.47 L150.892,6.596 L145.486,6.596 L142.052,11.9 L138.652,6.596 L133.11,6.596 L139.264,15.572 L132.872,24.82 L138.278,24.82 Z" id="litix" fill="#2B39F8"></path>
                    </g>
                </g>
            </g>
        </g>
    </g>
</svg>