<svg width="0" height="0" class="hidden">
    <symbol xmlns="http://www.w3.org/2000/svg" xmlns:xlink="http://www.w3.org/1999/xlink" viewBox="0 0 26 18" id="lang-en">
        <defs>
            <rect id="a" x="0" y="0" width="25.2" height="18" rx="2"></rect>
        </defs>
        <mask id="b" fill="#fff">
            <use xlink:href="#a"></use>
        </mask>
        <use fill="#FFF" xlink:href="#a"></use>
        <path fill="#0A17A7" mask="url(#b)" d="M0 0h25.2v18H0z"></path>
        <path d="M26.354-1.725l1.342 1.99-8.502 5.734L25.2 6v6h-6.007l8.503 5.735-1.342 1.99L15.6 12.47v6.73h-6v-6.73l-10.754 7.255-1.342-1.99L6.007 12H0V6h6.006L-2.496.264l1.342-1.99L9.6 5.528V-1.2h6v6.728l10.754-7.253z" fill="#FFF" mask="url(#b)"></path>
        <path stroke="#DB1F35" stroke-width=".667" stroke-linecap="round" mask="url(#b)" d="M16.801 5.699L28.2-1.8"></path>
        <path stroke="#DB1F35" stroke-width=".667" stroke-linecap="round" mask="url(#b)" transform="matrix(1 0 0 -1 0 31.543)" d="M18.011 19.215l10.219-6.887"></path>
        <path stroke="#DB1F35" stroke-width=".667" stroke-linecap="round" mask="url(#b)" d="M7.205 5.679L-3.454-1.504"></path>
        <path stroke="#DB1F35" stroke-width=".667" stroke-linecap="round" mask="url(#b)" transform="matrix(1 0 0 -1 0 32.324)" d="M8.361 20.079l-11.815-7.835"></path>
        <path fill="#E6273E" mask="url(#b)" d="M0 10.8h10.8V18h3.6v-7.2h10.8V7.2H14.4V0h-3.6v7.2H0z"></path>
    </symbol>
    <symbol xmlns="http://www.w3.org/2000/svg" xmlns:xlink="http://www.w3.org/1999/xlink" viewBox="0 0 26 18" id="lang-ru">
        <defs>
            <rect id="a" x="0" y="0" width="25.2" height="18" rx="2"></rect>
        </defs>
        <mask id="b" fill="#fff">
            <use xlink:href="#a"></use>
        </mask>
        <rect fill="#F5F5F5" mask="url(#b)" y=".25" width="25" height="17.5" rx="2"></rect>
        <path fill="#0C47B7" mask="url(#b)" d="M0 6h25v6H0z"></path>
        <path fill="#E53B35" mask="url(#b)" d="M0 12h25v6H0z"></path>
    </symbol>
    <symbol xmlns="http://www.w3.org/2000/svg" viewBox="0 0 153 32" id="logo">
        <g fill="none" fill-rule="evenodd">
            <path d="M6.092 25v-9.554h9.656V25h5.236V1.2h-5.236v9.418H6.092V1.2H.856V25h5.236zm24.412 5.542c1.519 0 2.72-.38 3.604-1.139.884-.76 1.677-2.08 2.38-3.961l7.004-18.666H38.12l-3.978 12.41-4.148-12.41H24.52l7.14 18.292c-.385.793-.986 1.19-1.802 1.19-.68 0-1.417-.238-2.21-.714l-1.734 3.74a8.913 8.913 0 004.59 1.258zm21.216-.102v-7.82c1.519 1.813 3.411 2.72 5.678 2.72 2.29 0 4.244-.844 5.865-2.533 1.62-1.689 2.431-3.984 2.431-6.885 0-2.924-.816-5.236-2.448-6.936-1.632-1.7-3.581-2.55-5.848-2.55-2.335 0-4.227.986-5.678 2.958V6.776h-5.168V30.44h5.168zm4.352-9.486c-1.247 0-2.3-.465-3.162-1.394-.839-.952-1.258-2.165-1.258-3.638 0-1.519.425-2.748 1.275-3.689.85-.94 1.898-1.411 3.145-1.411s2.3.47 3.162 1.411c.861.94 1.292 2.148 1.292 3.621 0 1.519-.43 2.748-1.292 3.689-.861.94-1.915 1.411-3.162 1.411zm22.066 4.454c3.128 0 5.61-1.133 7.446-3.4l-2.958-2.618c-1.337 1.247-2.81 1.87-4.42 1.87-1.179 0-2.153-.306-2.924-.918-.77-.612-1.28-1.496-1.53-2.652h12.682a21.84 21.84 0 00.068-1.36c0-2.788-.76-5.134-2.278-7.038-1.519-1.904-3.717-2.856-6.596-2.856-2.607 0-4.76.918-6.46 2.754-1.7 1.836-2.55 4.08-2.55 6.732 0 2.81.895 5.094 2.686 6.851 1.79 1.757 4.069 2.635 6.834 2.635zM81.47 14.46h-7.786c.204-1.201.652-2.148 1.343-2.839.691-.691 1.558-1.037 2.601-1.037 1.065 0 1.932.351 2.601 1.054.669.703 1.082 1.643 1.241 2.822z" fill="#000"></path>
            <path d="M95.75 25V.18h-5.168V25h5.168zm10.404-20.23V.18h-5.44v4.59h5.44zM106.018 25V6.776h-5.168V25h5.168zm11.016.306c1.541 0 2.901-.351 4.08-1.054v-4.148a5.263 5.263 0 01-2.55.646c-1.11 0-1.666-.59-1.666-1.768v-7.786h4.284v-4.42h-4.284V2.118h-5.168v4.658h-2.176v4.42h2.176v8.636c0 1.995.459 3.406 1.377 4.233.918.827 2.227 1.241 3.927 1.241zM130.532 4.77V.18h-5.44v4.59h5.44zM130.396 25V6.776h-5.168V25h5.168zm8.738 0l3.672-5.678L146.478 25h5.542l-6.426-9.35 6.154-8.874h-5.406l-3.434 5.304-3.4-5.304h-5.542l6.154 8.976L133.728 25h5.406z" fill="#2B39F8"></path>
        </g>
    </symbol>
</svg>