<?xml version="1.0" encoding="UTF-8"?>
<svg width="28px" height="28px" viewBox="0 0 28 28" version="1.1" xmlns="http://www.w3.org/2000/svg" xmlns:xlink="http://www.w3.org/1999/xlink">
    <title>alert</title>
    <g id="Prices" stroke="none" stroke-width="1" fill="none" fill-rule="evenodd">
        <g id="Prices-1600" transform="translate(-70.000000, -1469.000000)">
            <g id="alert" transform="translate(70.000000, 1469.000000)">
                <circle id="Oval" fill="#FBEDCF" cx="14" cy="14" r="14"></circle>
                <path d="M14.8543307,16.3149606 L15.1614173,7 L12.5,7 L12.8070866,16.3149606 L14.8543307,16.3149606 Z M13.8307087,20 C14.1855643,20 14.496063,19.8669291 14.7622047,19.6007874 C15.0283465,19.3346457 15.1614173,19.024147 15.1614173,18.6692913 C15.1614173,18.3144357 15.0283465,18.003937 14.7622047,17.7377953 C14.496063,17.4716535 14.1855643,17.3385827 13.8307087,17.3385827 C13.475853,17.3385827 13.1653543,17.4716535 12.8992126,17.7377953 C12.6330709,18.003937 12.5,18.3144357 12.5,18.6692913 C12.5,19.024147 12.6330709,19.3346457 12.8992126,19.6007874 C13.1653543,19.8669291 13.475853,20 13.8307087,20 Z" id="!" fill="#000000" fill-rule="nonzero"></path>
            </g>
        </g>
    </g>
</svg>