<?xml version="1.0" encoding="UTF-8"?>
<svg width="47px" height="48px" viewBox="0 0 47 48" version="1.1" xmlns="http://www.w3.org/2000/svg" xmlns:xlink="http://www.w3.org/1999/xlink">
    <title>alert</title>
    <g id="Home" stroke="none" stroke-width="1" fill="none" fill-rule="evenodd">
        <g id="Home-1600" transform="translate(-964.000000, -1084.000000)" fill-rule="nonzero">
            <g id="Why-you-need-Hypelitix" transform="translate(70.000000, 922.000000)">
                <g id="alert" transform="translate(894.000000, 162.000000)">
                    <path d="M15.691883,5.97529825 L12.4091696,5.51064327 C10.6816374,5.26615205 9.07162573,6.43667836 8.77015205,8.15625731 L8.19733333,11.4239064 C8.02498246,12.4072982 7.40874854,13.2559532 6.52734503,13.723883 L3.59869006,15.2787836 C2.05745029,16.0970292 1.44252632,17.9910175 2.20874854,19.5594854 L3.66474854,22.5399766 C4.10292398,23.4369123 4.10292398,24.4859883 3.66474854,25.382924 L2.20874854,28.3634152 C1.44252632,29.931883 2.05754386,31.8258713 3.59869006,32.644117 L6.52734503,34.1990175 C7.40865497,34.6669474 8.02488889,35.5156959 8.19733333,36.4989942 L8.77015205,39.7666433 C9.07162573,41.4862222 10.6816374,42.6567485 12.4091696,42.4122573 L15.691883,41.9476023 C15.8961404,41.9186901 16.1006784,41.9107368 16.3031579,41.920655 L16.4760702,40.1056374 C15.2836491,40.2744327 14.1722573,39.4664795 13.9641637,38.2794854 L12.7901754,32.6156725 C12.6711579,31.9369357 12.2458012,31.3510175 11.6374269,31.0280234 L9.61590643,29.9547135 C8.55204678,29.389848 8.12753216,28.0825263 8.65646784,26.9998596 L9.66147368,24.9425029 C9.96388304,24.3233684 9.96388304,23.5992515 9.66147368,22.980117 L8.65646784,20.9227602 C8.12753216,19.8400936 8.55204678,18.5327719 9.61590643,17.9679064 L11.6374269,16.8945965 C12.2458012,16.5716023 12.6711579,15.9857778 12.7901754,15.3069474 L13.9190643,9.6002807 C14.1271579,8.41328655 15.2384561,7.60533333 16.4309708,7.77412865 L16.6514152,5.96612865 C16.3372164,6.0162807 16.0141287,6.0208655 15.691883,5.97529825 Z" id="Path" fill="#CEE1F2"></path>
                    <path d="M23.0257778,47.9229942 C21.7482105,47.9229942 20.4706433,47.4412164 19.4751813,46.4775673 L17.0923041,44.1708538 C16.788117,43.8763041 16.373614,43.7414737 15.9540585,43.8007018 L12.6714386,44.2653567 C12.4253567,44.3001637 12.1807719,44.3170994 11.9395556,44.3170994 C9.49211696,44.317193 7.36252632,42.5745965 6.92697076,40.0899181 L6.35415205,36.822269 C6.28088889,36.4043977 6.02423392,36.0507135 5.64987135,35.8519766 L2.72121637,34.2971696 C0.274994152,32.9983626 -0.688561404,30.0312515 0.527345029,27.5421754 L1.98334503,24.5616842 C2.16963743,24.1803041 2.16963743,23.7428772 1.98334503,23.3615906 L0.527345029,20.3810058 C-0.688561404,17.8919298 0.275087719,14.9248187 2.72121637,13.6261053 L5.64996491,12.0712047 C6.02423392,11.8724678 6.28098246,11.5188772 6.35415205,11.1009123 L6.92697076,7.83326316 C7.40547368,5.1037193 9.92898246,3.2697076 12.6714386,3.65782456 L15.954152,4.12247953 C16.3732398,4.18189474 16.788117,4.04687719 17.0923041,3.75232749 L19.4751813,1.44561404 C21.4661988,-0.481777778 24.5854503,-0.481684211 26.5763743,1.44561404 L28.9591579,3.75232749 C29.2634386,4.04687719 29.6781287,4.1819883 30.0974035,4.12247953 L33.3800234,3.65782456 C36.1228538,3.26989474 38.6459883,5.1037193 39.1245848,7.83326316 L39.6974035,11.1009123 C39.7706667,11.5187836 40.0273216,11.8724678 40.4015906,12.0712047 L43.3302456,13.6260117 C45.7764678,14.9248187 46.740117,17.8920234 45.524117,20.3810058 L44.0682105,23.3614971 C43.8818246,23.7428772 43.8818246,24.1803041 44.0682105,24.5615906 L45.5242105,27.5421754 C46.7402105,30.0311579 45.7765614,32.998269 43.3303392,34.297076 L40.4015906,35.8519766 C40.0273216,36.0507135 39.7705731,36.4043041 39.6974035,36.822269 L39.1245848,40.0899181 C38.6460819,42.819462 36.1224795,44.6535673 33.3800234,44.2653567 L30.0974035,43.8007018 C29.6784094,43.7413801 29.2634386,43.8763041 28.9592515,44.1708538 L26.5763743,46.4775673 C25.5809123,47.4411228 24.303345,47.9229942 23.0257778,47.9229942 Z M16.1569123,40.0434152 C17.4723743,40.0434152 18.7319766,40.5488655 19.6956257,41.481731 L22.0784094,43.7884444 C22.6097778,44.3026901 23.4420585,44.3027836 23.9733333,43.7884444 L26.356117,41.4818246 C27.4961404,40.3781988 29.0509474,39.8723743 30.6219415,40.0949708 L33.904655,40.5596257 C34.6362573,40.6627368 35.3103158,40.1730994 35.4382222,39.4437427 L36.0110409,36.1760936 C36.2850058,34.6131462 37.2456608,33.2901988 38.6467368,32.5463392 L41.5753918,30.9914386 C42.2292398,30.6443041 42.4866433,29.8508538 42.1614035,29.1850292 L40.7054035,26.2044444 C40.009076,24.7791345 40.009076,23.1440468 40.7054035,21.7187368 L42.1613099,18.7382456 C42.4866433,18.0724211 42.2291462,17.2788772 41.5752982,16.9317427 L38.6466433,15.3769357 C37.2455673,14.633076 36.2849123,13.3100351 36.0109474,11.7471813 L35.4381287,8.47953216 C35.3103158,7.75017544 34.636538,7.25988304 33.9045614,7.36364912 L30.6219415,7.82830409 C29.0509474,8.05024561 27.4961404,7.54507602 26.3560234,6.44145029 L23.9732398,4.13473684 C23.4418713,3.62039766 22.6095906,3.62039766 22.0782222,4.13473684 L19.6954386,6.44135673 C18.5553216,7.54498246 17.0004211,8.05061988 15.429614,7.82821053 L12.1469006,7.36355556 C11.4146433,7.26016374 10.7412398,7.75008187 10.6134269,8.4794386 L10.0406082,11.7470877 C9.76664327,13.3100351 8.8059883,14.6329825 7.40500585,15.3768421 L4.47625731,16.9317427 C3.82240936,17.2788772 3.56491228,18.0723275 3.89015205,18.738152 L5.34615205,21.7186433 C6.04247953,23.1439532 6.04247953,24.7790409 5.34615205,26.2044444 L3.89015205,29.1849357 C3.56491228,29.8507602 3.82231579,30.6442105 4.47625731,30.9914386 L7.40491228,32.5462456 C8.8059883,33.2901988 9.76664327,34.6131462 10.0406082,36.176 L10.6134269,39.4436491 C10.7412398,40.1729123 11.4146433,40.6636725 12.1469006,40.5595322 L15.429614,40.0948772 C15.6728889,40.0604444 15.915883,40.0434152 16.1569123,40.0434152 Z" id="Shape" fill="#4831F2"></path>
                    <path d="M23.119345,27.9849357 C22.0858012,27.9849357 21.248,27.1471345 21.248,26.1135906 L21.248,14.698386 C21.248,13.6648421 22.0858012,12.8270409 23.119345,12.8270409 C24.1528889,12.8270409 24.9906901,13.6648421 24.9906901,14.698386 L24.9906901,26.1135906 C24.9906901,27.1470409 24.1528889,27.9849357 23.119345,27.9849357 Z M23.119345,35.3767485 C24.4112281,35.3767485 25.4585263,34.3294503 25.4585263,33.0375673 C25.4585263,31.7456842 24.4112281,30.698386 23.119345,30.698386 C21.827462,30.698386 20.7801637,31.7456842 20.7801637,33.0375673 C20.7801637,34.3294503 21.827462,35.3767485 23.119345,35.3767485" id="Shape" fill="#FF5CF0"></path>
                </g>
            </g>
        </g>
    </g>
</svg>