<?xml version="1.0" encoding="UTF-8"?>
<svg width="100px" height="91px" viewBox="0 0 100 91" version="1.1" xmlns="http://www.w3.org/2000/svg" xmlns:xlink="http://www.w3.org/1999/xlink">
    <title>click</title>
    <g id="Prices" stroke="none" stroke-width="1" fill="none" fill-rule="evenodd">
        <g id="Prices-1600" transform="translate(-1249.000000, -571.000000)" fill-rule="nonzero">
            <g id="Group-22" transform="translate(1107.000000, 571.000000)">
                <g id="click" transform="translate(142.000000, 0.000000)">
                    <path d="M10.3427419,72.7620968 C10.3427419,52.9233871 0.060483871,39.3145161 0.060483871,29.7580645 C0.060483871,20.2016129 5.54435484,0.120967742 49.516129,0.120967742 C93.4879032,0.120967742 99.9395161,27.1169355 99.9395161,37.641129 C99.9395161,86.8548387 10.3427419,107.883065 10.3427419,72.7620968 Z" id="Path" fill="#FBEDCF"></path>
                    <path d="M76.5322581,71.6935484 L23.4677419,71.6935484 C20.3024194,71.6935484 17.7419355,69.1330645 17.7419355,65.9677419 L17.7419355,22.9435484 L82.2580645,22.9435484 L82.2580645,65.9475806 C82.2580645,69.1129032 79.6975806,71.6935484 76.5322581,71.6935484 Z" id="Path" fill="#F3F3F1"></path>
                    <path d="M82.2580645,22.9435484 L17.7419355,22.9435484 L17.7419355,18.6491935 C17.7419355,15.483871 20.3024194,12.9233871 23.4677419,12.9233871 L76.5120968,12.9233871 C79.6774194,12.9233871 82.2379032,15.483871 82.2379032,18.6491935 L82.2379032,22.9435484 L82.2580645,22.9435484 Z" id="Path" fill="#FDF5E4"></path>
                    <path d="M69.3548387,61.6532258 C66.9758065,61.6532258 65.0604839,63.5685484 65.0604839,65.9475806 L65.0604839,60.2217742 C65.0604839,57.8427419 63.1451613,55.9274194 60.766129,55.9274194 C58.3870968,55.9274194 56.4717742,57.358871 56.4717742,57.358871 C56.4717742,54.9798387 54.5564516,53.0645161 52.1774194,53.0645161 C50.3830645,53.0645161 48.8709677,54.1532258 48.2056452,55.7056452 L47.8629032,40.1612903 C47.8629032,37.7822581 45.9475806,35.8669355 43.5685484,35.8669355 C41.1895161,35.8669355 39.2741935,37.7822581 39.2741935,40.1612903 L39.2741935,69.4959677 C37.3790323,66.9354839 33.7903226,63.1048387 29.233871,63.1048387 C24.9395161,63.1048387 23.5080645,64.6572581 23.5080645,65.9677419 C23.5080645,69.2741935 27.0564516,70.4637097 30.9879032,79.5967742 L73.6895161,79.5967742 L73.6895161,65.9677419 C73.6491935,63.5685484 71.733871,61.6532258 69.3548387,61.6532258 Z" id="Path" fill="#DAD5FF"></path>
                    <rect id="Rectangle" fill="#000000" x="18.3467742" y="21.391129" width="63.3064516" height="3.08467742"></rect>
                    <path d="M46.3104839,63.9112903 L46.3104839,57.3387097 C46.3104839,54.1129032 48.9314516,51.4919355 52.1572581,51.4919355 C55.3830645,51.4919355 58.0040323,54.1129032 58.0040323,57.3387097 L58.0040323,59.5967742 L54.9193548,59.5967742 L54.9193548,57.3387097 C54.9193548,55.8266129 53.6895161,54.5766129 52.1572581,54.5766129 C50.6451613,54.5766129 49.3951613,55.8064516 49.3951613,57.3387097 L49.3951613,63.9112903 L46.3104839,63.9112903 Z" id="Path" fill="#000000"></path>
                    <path d="M54.8991935,66.7741935 L54.8991935,60.2016129 C54.8991935,56.9758065 57.5201613,54.3548387 60.7459677,54.3548387 C63.9717742,54.3548387 66.5927419,56.9758065 66.5927419,60.2016129 L66.5927419,65.3225806 L63.5080645,65.3225806 L63.5080645,60.2016129 C63.5080645,58.6895161 62.2782258,57.4395161 60.7459677,57.4395161 C59.233871,57.4395161 57.983871,58.6693548 57.983871,60.2016129 L57.983871,66.7741935 L54.8991935,66.7741935 Z" id="Path" fill="#000000"></path>
                    <path d="M72.1169355,78.9717742 L72.1169355,65.9475806 C72.1169355,64.4354839 70.8870968,63.1854839 69.3548387,63.1854839 C67.8225806,63.1854839 66.5927419,64.4153226 66.5927419,65.9475806 L66.5927419,69.6370968 L63.5080645,69.6370968 L63.5080645,65.9475806 C63.5080645,62.7217742 66.1290323,60.1008065 69.3548387,60.1008065 C72.5806452,60.1008065 75.2016129,62.7217742 75.2016129,65.9475806 L75.2016129,78.9717742 L72.1169355,78.9717742 L72.1169355,78.9717742 Z" id="Path" fill="#000000"></path>
                    <g id="Group" transform="translate(1.814516, 11.290323)">
                        <path d="M3.75,13.1854839 C1.71370968,13.1854839 0.060483871,11.5322581 0.060483871,9.49596774 C0.060483871,7.45967742 1.71370968,5.80645161 3.75,5.80645161 C5.78629032,5.80645161 7.43951613,7.45967742 7.43951613,9.49596774 C7.43951613,11.5322581 5.78629032,13.1854839 3.75,13.1854839 Z M3.75,7.45967742 C2.62096774,7.45967742 1.71370968,8.36693548 1.71370968,9.49596774 C1.71370968,10.625 2.62096774,11.5322581 3.75,11.5322581 C4.87903226,11.5322581 5.78629032,10.625 5.78629032,9.49596774 C5.78629032,8.36693548 4.85887097,7.45967742 3.75,7.45967742 Z" id="Shape" fill="#4831F2"></path>
                        <path d="M78.891129,61.9354839 L78.891129,7.33870968 C78.891129,5.02016129 77.016129,3.14516129 74.6975806,3.14516129 L21.6532258,3.14516129 C19.3346774,3.14516129 17.4596774,5.02016129 17.4596774,7.33870968 L17.4596774,44.7177419 L14.375,44.7177419 L14.375,7.33870968 C14.375,3.3266129 17.641129,0.060483871 21.6532258,0.060483871 L74.6975806,0.060483871 C78.7096774,0.060483871 81.9758065,3.3266129 81.9758065,7.33870968 L81.9758065,61.9354839 L78.891129,61.9354839 L78.891129,61.9354839 Z" id="Path" fill="#000000"></path>
                        <path d="M27.4798387,68.3467742 C25.6048387,64.1129032 23.8306452,61.7540323 22.5201613,60 C21.108871,58.1048387 20.1008065,56.7540323 20.1008065,54.6572581 C20.1008065,53.9112903 20.4435484,50.2419355 27.3790323,50.2419355 C29.9395161,50.2419355 32.4798387,51.25 34.8790323,53.2258065 L35.8669355,54.0322581 L35.8669355,28.8508065 C35.8669355,25.625 38.4879032,23.0040323 41.7137097,23.0040323 C44.9395161,23.0040323 47.5604839,25.625 47.5604839,28.8508065 L47.5604839,45.4435484 L44.4758065,45.4435484 L44.4758065,28.8508065 C44.4758065,27.3387097 43.2459677,26.0887097 41.7137097,26.0887097 C40.1814516,26.0887097 38.9516129,27.3185484 38.9516129,28.8508065 L38.9516129,58.1854839 C38.9516129,58.8508065 38.5282258,59.4354839 37.8830645,59.6572581 C37.7217742,59.7177419 37.5604839,59.7379032 37.3991935,59.7379032 C36.9153226,59.7379032 36.4516129,59.516129 36.1693548,59.1129032 C34.5766129,56.9556452 31.3104839,53.3467742 27.3790323,53.3467742 C23.6491935,53.3467742 23.2056452,54.5362903 23.2056452,54.5967742 L23.1653226,54.6975806 L23.1653226,54.7983871 C23.1854839,55.7056452 23.7096774,56.4314516 25,58.1451613 C26.3306452,59.9193548 28.2862903,62.5604839 30.3225806,67.1169355 L27.4798387,68.3467742 Z" id="Path" fill="#000000"></path>
                        <rect id="Rectangle" fill="#000000" x="2.90322581" y="66.0080645" width="90.5443548" height="3.08467742"></rect>
                    </g>
                </g>
            </g>
        </g>
    </g>
</svg>