<?xml version="1.0" encoding="UTF-8"?>
<svg width="14px" height="14px" viewBox="0 0 14 14" version="1.1" xmlns="http://www.w3.org/2000/svg" xmlns:xlink="http://www.w3.org/1999/xlink">
    <title>icon/close</title>
    <defs>
        <filter id="filter-1">
            <feColorMatrix in="SourceGraphic" type="matrix" values="0 0 0 0 0.000000 0 0 0 0 0.000000 0 0 0 0 0.000000 0 0 0 1.000000 0"></feColorMatrix>
        </filter>
    </defs>
    <g id="UI" stroke="none" stroke-width="1" fill="none" fill-rule="evenodd">
        <g transform="translate(-547.000000, -2382.000000)" id="Modal-Email">
            <g transform="translate(57.000000, 2375.000000)">
                <g id="icon/close" transform="translate(483.000000, 0.000000)" filter="url(#filter-1)">
                    <g id="close-cross-in-circular-outlined-interface-button" transform="translate(7.000000, 7.000000)" fill="#000000" fill-rule="nonzero">
                        <path d="M1.28628571,12.7089476 C1.50539524,12.9281095 1.79249524,13.0376381 2.07964762,13.0376381 C2.3668,13.0376381 2.65395238,12.9280571 2.87300952,12.7089476 L6.99759048,8.58436667 L11.1222238,12.7089476 C11.341281,12.9281095 11.6284333,13.0376381 11.9155857,13.0376381 C12.2027381,13.0376381 12.4898381,12.9280571 12.7089476,12.7089476 C13.1471143,12.2708857 13.1471143,11.5604429 12.7089476,11.1222762 L8.5842619,6.99769524 L12.7088429,2.8730619 C13.1470095,2.43489524 13.1470095,1.72445238 12.7088429,1.2863381 C12.270781,0.848171429 11.5603381,0.848171429 11.1221714,1.2863381 L6.9975381,5.41097143 L2.87295714,1.2863381 C2.43479048,0.848171429 1.72434762,0.848171429 1.28623333,1.2863381 C0.848066667,1.72450476 0.848066667,2.43489524 1.28623333,2.8730619 L5.41086667,6.99769524 L1.28623333,11.1222762 C0.848119048,11.5604429 0.848119048,12.2708857 1.28628571,12.7089476 Z" id="Path"></path>
                        <path d="M11.9156381,13.063881 C11.6088952,13.063881 11.3205905,12.9444524 11.1037333,12.7274905 L6.99764286,8.6214 L2.89160476,12.7274905 C2.67474762,12.9444524 2.38639048,13.063881 2.0797,13.063881 C1.77300952,13.063881 1.48465238,12.9444524 1.26779524,12.7274905 C1.0509381,12.5106333 0.931509524,12.2223286 0.931509524,11.9156905 C0.931509524,11.609 1.0509381,11.3206952 1.26779524,11.1037857 L5.37388571,6.99769524 L1.26779524,2.89160476 C0.820147619,2.44390476 0.820147619,1.71549524 1.26779524,1.26779524 C1.48465238,1.0509381 1.77295714,0.931509524 2.0797,0.931509524 C2.38639048,0.931509524 2.67474762,1.0509381 2.89160476,1.26779524 L6.99769524,5.37388571 L11.1037857,1.26779524 C11.3206952,1.0509381 11.609,0.931509524 11.9156905,0.931509524 C12.2223286,0.931509524 12.5106333,1.0509381 12.7274905,1.26779524 C12.9444,1.48465238 13.0637762,1.77300952 13.0637762,2.0797 C13.0637762,2.38639048 12.9444,2.67474762 12.7274905,2.89160476 L8.6214,6.99769524 L12.7275952,11.1037857 C12.9445048,11.3206952 13.0639333,11.609 13.0639333,11.9156905 C13.0639333,12.2223286 12.9445048,12.5106333 12.7275952,12.7274905 C12.510581,12.9444 12.2222762,13.063881 11.9156381,13.063881 Z M6.99764286,8.54733333 L11.1407667,12.6904571 C11.3476714,12.8974667 11.622881,13.0115 11.9156381,13.0115 C12.2082905,13.0115 12.4835,12.8974667 12.6905095,12.6904571 C12.8974667,12.4835524 13.0115,12.2083952 13.0115,11.9156905 C13.0115,11.6229857 12.8974667,11.3477762 12.6905095,11.140819 L8.54728095,6.99769524 L12.6904048,2.85457143 C12.8973619,2.64761429 13.0113429,2.37240476 13.0113429,2.0797 C13.0113429,1.78699524 12.8973619,1.5118381 12.6904048,1.30488095 C12.4835,1.09792381 12.2083429,0.983942857 11.9156381,0.983942857 C11.6229333,0.983942857 11.3477238,1.09792381 11.1407667,1.30488095 L6.99764286,5.44800476 L2.85451905,1.30488095 C2.6475619,1.09792381 2.37235238,0.983942857 2.07964762,0.983942857 C1.78694286,0.983942857 1.51178571,1.09792381 1.30482857,1.30488095 C0.877609524,1.73215238 0.877609524,2.4273 1.30482857,2.85457143 L5.44795238,6.99769524 L1.30482857,11.140819 C1.09787143,11.3477762 0.983890476,11.6229857 0.983890476,11.9156905 C0.983890476,12.2083952 1.09787143,12.4835524 1.30482857,12.6904571 C1.5118381,12.8974667 1.78699524,13.0115 2.0797,13.0115 C2.37240476,13.0115 2.6475619,12.8974667 2.85457143,12.6904571 L6.99764286,8.54733333 Z" id="Shape"></path>
                    </g>
                </g>
            </g>
        </g>
    </g>
</svg>