<?xml version="1.0" encoding="UTF-8"?>
<svg width="55px" height="48px" viewBox="0 0 55 48" version="1.1" xmlns="http://www.w3.org/2000/svg" xmlns:xlink="http://www.w3.org/1999/xlink">
    <title>cloud-vision-api</title>
    <g id="Home" stroke="none" stroke-width="1" fill="none" fill-rule="evenodd">
        <g id="Home-1600" transform="translate(-773.000000, -4923.000000)">
            <g id="Why-choose-us" transform="translate(94.000000, 4762.000000)">
                <g id="2" transform="translate(550.000000, 161.000000)">
                    <g id="cloud-vision-api" transform="translate(129.000000, 0.000000)">
                        <path d="M23.3913293,3.75 C23.3913293,3.75 19.7051423,4.85783344 18.3338346,7.0824968 C17.4196295,8.5656057 14.1208351,14.202783 8.43745141,23.9940286 L18.0032889,39.8259442 C19.4498277,42.3300489 21.0681399,43.7017752 22.8582254,43.9411231 C22.9125648,43.9483887 23.3166135,44.8975147 23.3704571,44.9163316 C25.1949189,45.5539348 24.3633686,46.2154042 20.8758063,46.9007398 L14.8618231,44.3833708 L4.00409614,24.0028634 C9.11544575,14.8134545 11.6711206,10.21875 11.6711206,10.21875 C11.6711206,10.21875 13.3422199,7.4962652 16.6844184,2.05129561 L25.3379308,0.96558201 C24.0401964,2.82186067 23.3913293,3.75 23.3913293,3.75 Z" id="Path-2" fill="#C6E1F2"></path>
                        <path d="M39.4285714,2 C39.8728064,2 40.2341567,2.16576959 40.5126221,2.49730877 L40.5126221,2.49730877 L52.6218596,23.304731 C52.7622269,23.5366076 52.8571429,23.764172 52.8571429,24 C52.8571429,24.235828 52.7622269,24.4633924 52.6218596,24.695269 L52.6218596,24.695269 L40.5126221,45.5026912 C40.2341567,45.8342304 39.8728064,46 39.4285714,46 L39.4285714,46 L15.4285714,46 C14.9843364,46 14.6229862,45.8342304 14.3445208,45.5026912 L14.3445208,45.5026912 L2.23528326,24.695269 C2.09491597,24.4633924 2,24.235828 2,24 C2,23.764172 2.09491597,23.5366076 2.23528326,23.304731 L2.23528326,23.304731 L14.3445208,2.49730877 C14.6229862,2.16576959 14.9843364,2 15.4285714,2 L15.4285714,2 Z" id="Path" stroke="#4831F2" stroke-width="4"></path>
                        <circle id="Oval" fill="#FF5CF3" cx="27.75" cy="24" r="3.5"></circle>
                        <path d="M26.8,12.9 L14.1333333,22.4 C13.2496777,23.0627417 13.0705916,24.3163444 13.7333333,25.2 C13.8470418,25.3516113 13.981722,25.4862915 14.1333333,25.6 L26.8,35.1 C27.5111111,35.6333333 28.4888889,35.6333333 29.2,35.1 L41.8666667,25.6 C42.7503223,24.9372583 42.9294084,23.6836556 42.2666667,22.8 C42.1529582,22.6483887 42.018278,22.5137085 41.8666667,22.4 L29.2,12.9 C28.4888889,12.3666667 27.5111111,12.3666667 26.8,12.9 Z M20.3406626,22.3615362 L26.8530753,17.8028473 C27.5417156,17.3207991 28.4582844,17.3207991 29.1469247,17.8028473 L35.6593374,22.3615362 C36.564236,22.9949652 36.7843055,24.2420261 36.1508765,25.1469247 C36.0169787,25.3382073 35.85062,25.504566 35.6593374,25.6384638 L29.1469247,30.1971527 C28.4582844,30.6792009 27.5417156,30.6792009 26.8530753,30.1971527 L20.3406626,25.6384638 C19.435764,25.0050348 19.2156945,23.7579739 19.8491235,22.8530753 C19.9830213,22.6617927 20.14938,22.495434 20.3406626,22.3615362 Z" id="Shape" fill="#4831F2"></path>
                    </g>
                </g>
            </g>
        </g>
    </g>
</svg>