<?xml version="1.0" encoding="UTF-8"?>
<svg width="48px" height="48px" viewBox="0 0 48 48" version="1.1" xmlns="http://www.w3.org/2000/svg" xmlns:xlink="http://www.w3.org/1999/xlink">
    <title>histogram</title>
    <g id="Home" stroke="none" stroke-width="1" fill="none" fill-rule="evenodd">
        <g id="Home-1600" transform="translate(-1337.000000, -1084.000000)" fill-rule="nonzero">
            <g id="Why-you-need-Hypelitix" transform="translate(70.000000, 922.000000)">
                <g id="histogram" transform="translate(1267.000000, 162.000000)">
                    <path d="M7.59375,36.75 L7.59375,11.25 C7.59375,6.07228125 11.7910312,1.875 16.96875,1.875 L11.25,1.875 C6.07228125,1.875 1.875,6.07228125 1.875,11.25 L1.875,36.75 C1.875,41.927625 6.07228125,46.125 11.25,46.125 L16.96875,46.125 C11.7910312,46.125 7.59375,41.927625 7.59375,36.75 Z" id="Path" fill="#CEE1F2"></path>
                    <path d="M36.75,48 L11.25,48 C5.04675,48 0,42.95325 0,36.75 L0,11.25 C0,5.04675 5.04675,0 11.25,0 L36.75,0 C42.95325,0 48,5.04675 48,11.25 L48,36.75 C48,42.95325 42.95325,48 36.75,48 Z M11.25,3.75 C7.1145,3.75 3.75,7.1145 3.75,11.25 L3.75,36.75 C3.75,40.8855 7.1145,44.25 11.25,44.25 L36.75,44.25 C40.8855,44.25 44.25,40.8855 44.25,36.75 L44.25,11.25 C44.25,7.1145 40.8855,3.75 36.75,3.75 L11.25,3.75 Z M11.34375,37.96875 L11.34375,30.09375 C11.34375,29.0581875 10.5043125,28.21875 9.46875,28.21875 C8.4331875,28.21875 7.59375,29.0581875 7.59375,30.09375 L7.59375,37.96875 C7.59375,39.0043125 8.4331875,39.84375 9.46875,39.84375 C10.5043125,39.84375 11.34375,39.0043125 11.34375,37.96875 Z M33.1875,37.96875 L33.1875,22.3125 C33.1875,21.2769375 32.3480625,20.4375 31.3125,20.4375 C30.2769375,20.4375 29.4375,21.2769375 29.4375,22.3125 L29.4375,37.96875 C29.4375,39.0043125 30.2769375,39.84375 31.3125,39.84375 C32.3480625,39.84375 33.1875,39.0043125 33.1875,37.96875 Z M40.5,37.96875 L40.5,33.84375 C40.5,32.8081875 39.6605625,31.96875 38.625,31.96875 C37.5894375,31.96875 36.75,32.8081875 36.75,33.84375 L36.75,37.96875 C36.75,39.0043125 37.5894375,39.84375 38.625,39.84375 C39.6605625,39.84375 40.5,39.0043125 40.5,37.96875 Z" id="Shape" fill="#4831F2"></path>
                    <path d="M24,39.84375 C22.9644375,39.84375 22.125,39.0043125 22.125,37.96875 L22.125,10.125 C22.125,9.0894375 22.9644375,8.25 24,8.25 C25.0355625,8.25 25.875,9.0894375 25.875,10.125 L25.875,37.96875 C25.875,39.0043125 25.0355625,39.84375 24,39.84375 Z M18.65625,37.96875 L18.65625,16.6875 C18.65625,15.6519375 17.8168125,14.8125 16.78125,14.8125 C15.7456875,14.8125 14.90625,15.6519375 14.90625,16.6875 L14.90625,37.96875 C14.90625,39.0043125 15.7456875,39.84375 16.78125,39.84375 C17.8168125,39.84375 18.65625,39.0043125 18.65625,37.96875 Z" id="Shape" fill="#FF5CF0"></path>
                </g>
            </g>
        </g>
    </g>
</svg>