<?xml version="1.0" encoding="UTF-8"?>
<svg width="48px" height="48px" viewBox="0 0 48 48" version="1.1" xmlns="http://www.w3.org/2000/svg" xmlns:xlink="http://www.w3.org/1999/xlink">
    <title>profile</title>
    <g id="Home" stroke="none" stroke-width="1" fill="none" fill-rule="evenodd">
        <g id="Home-1600" transform="translate(-588.000000, -1084.000000)" fill-rule="nonzero">
            <g id="Why-you-need-Hypelitix" transform="translate(70.000000, 922.000000)">
                <g id="profile" transform="translate(518.000000, 162.000000)">
                    <path d="M15.6773438,1.8586875 L11.25,1.875 C6.07228125,1.875 1.875,6.07228125 1.875,11.25 L1.875,36.75 C1.875,41.9277188 6.07228125,46.125 11.25,46.125 L16.1304375,46.0956563 C11.3009062,45.7160625 7.5,41.6770313 7.5,36.75 L7.5,11.25 C7.5,6.478125 11.0652187,2.45934375 15.6773437,1.8586875 L15.6773438,1.8586875 Z" id="Path" fill="#C6E1F2"></path>
                    <path d="M36.75,48 L11.25,48 C5.04675,48 0,42.95325 0,36.75 L0,11.25 C0,5.04675 5.04675,0 11.25,0 L36.75,0 C42.95325,0 48,5.04675 48,11.25 L48,36.75 C48,42.95325 42.95325,48 36.75,48 Z M11.25,3.75 C7.1145,3.75 3.75,7.1145 3.75,11.25 L3.75,36.75 C3.75,40.8855 7.1145,44.25 11.25,44.25 L36.75,44.25 C40.8855,44.25 44.25,40.8855 44.25,36.75 L44.25,11.25 C44.25,7.1145 40.8855,3.75 36.75,3.75 L11.25,3.75 Z M40.5,12.09375 C40.5,11.0581875 39.6605625,10.21875 38.625,10.21875 L9.375,10.21875 C8.3394375,10.21875 7.5,11.0581875 7.5,12.09375 C7.5,13.1293125 8.3394375,13.96875 9.375,13.96875 L38.625,13.96875 C39.6605625,13.96875 40.5,13.1293125 40.5,12.09375 Z M14.3195625,30.28125 C11.2179375,30.28125 8.6945625,27.757875 8.6945625,24.65625 C8.6945625,21.554625 11.2179375,19.03125 14.3195625,19.03125 C17.4211875,19.03125 19.9445625,21.554625 19.9445625,24.65625 C19.9445625,27.757875 17.4211875,30.28125 14.3195625,30.28125 Z M14.3195625,22.78125 C13.2856875,22.78125 12.4445625,23.622375 12.4445625,24.65625 C12.4445625,25.690125 13.2856875,26.53125 14.3195625,26.53125 C15.3534375,26.53125 16.1945625,25.690125 16.1945625,24.65625 C16.1945625,23.622375 15.3534375,22.78125 14.3195625,22.78125 Z M40.5,22.6875 C40.5,21.6519375 39.6605625,20.8125 38.625,20.8125 L25.875,20.8125 C24.8394375,20.8125 24,21.6519375 24,22.6875 C24,23.7230625 24.8394375,24.5625 25.875,24.5625 L38.625,24.5625 C39.6605625,24.5625 40.5,23.7230625 40.5,22.6875 Z M40.5,29.25 C40.5,28.2144375 39.6605625,27.375 38.625,27.375 L25.875,27.375 C24.8394375,27.375 24,28.2144375 24,29.25 C24,30.2855625 24.8394375,31.125 25.875,31.125 L38.625,31.125 C39.6605625,31.125 40.5,30.2855625 40.5,29.25 Z M35.8125,35.8125 C35.8125,34.7769375 34.9730625,33.9375 33.9375,33.9375 L25.875,33.9375 C24.8394375,33.9375 24,34.7769375 24,35.8125 C24,36.8480625 24.8394375,37.6875 25.875,37.6875 L33.9375,37.6875 C34.9730625,37.6875 35.8125,36.8480625 35.8125,35.8125 Z" id="Shape" fill="#4831F2"></path>
                    <path d="M9.37546875,37.78125 C8.86753125,37.78125 8.36128125,37.576125 7.9914375,37.1716875 C7.29253125,36.407625 7.34540625,35.2215938 8.1095625,34.5226875 C9.64575,33.1175625 11.64075,32.34375 13.7271563,32.34375 L14.9119688,32.34375 C16.9982813,32.34375 18.9932813,33.1175625 20.5295625,34.5226875 C21.2937188,35.2215938 21.3465938,36.4075313 20.6476875,37.1716875 C19.9487813,37.93575 18.7626562,37.988625 17.9986875,37.2898125 C17.1554062,36.5185313 16.0591875,36.09375 14.9119687,36.09375 L13.7271563,36.09375 C12.5799375,36.09375 11.4837187,36.5185313 10.6404375,37.2898125 C10.2807187,37.618875 9.8274375,37.78125 9.37546875,37.78125 L9.37546875,37.78125 Z" id="Path" fill="#FF5CF4"></path>
                </g>
            </g>
        </g>
    </g>
</svg>