<?xml version="1.0" encoding="UTF-8"?>
<svg width="42px" height="48px" viewBox="0 0 42 48" version="1.1" xmlns="http://www.w3.org/2000/svg" xmlns:xlink="http://www.w3.org/1999/xlink">
    <title>save-money</title>
    <g id="Home" stroke="none" stroke-width="1" fill="none" fill-rule="evenodd">
        <g id="Home-1600" transform="translate(-1277.000000, -4923.000000)" fill-rule="nonzero">
            <g id="Why-choose-us" transform="translate(94.000000, 4762.000000)">
                <g id="3" transform="translate(1000.000000, 161.000000)">
                    <g id="save-money" transform="translate(183.000000, 0.000000)">
                        <path d="M16.0413701,43.9808647 C14.8989212,38.5056782 11.1451605,34.4255035 8.91942516,28.8763843 C6.16987701,22.0214459 7.44419718,14.9819205 8.17609892,10.9447508 C8.26880049,9.44479695 7.35663663,8.07418466 5.8776549,7.79648797 L5.84623755,7.79061252 C4.31396874,7.50312341 2.83286531,8.5002365 2.52872909,10.0292412 C1.75259825,13.9309491 0.846717859,21.1850917 3.12900439,28.7132589 C4.76768417,34.1184296 9.58979786,39.0245948 10.9582069,43.8177393 C11.3707125,45.2624476 12.6913019,46.2580102 14.1937854,46.2580102 C15.3952337,46.2580102 15.7371523,45.6287657 16.3323682,44.6845316 C16.2110238,44.4650182 16.0942492,44.2343251 16.0413701,43.9808647 Z" id="Path" fill="#CEE1F2"></path>
                        <path d="M40.9632406,9.71237481 C40.486921,7.31723065 38.1453903,5.7353469 35.742249,6.18677744 L35.7121373,6.19240808 C33.4471507,6.61772549 31.9227974,8.67274629 32.0877181,11.0786621 C32.11326,11.4508557 32.1494919,11.8716849 32.1880088,12.3173216 C32.3958529,14.7265015 32.7135353,18.4135922 31.9816335,22.398046 C31.8999484,22.316769 31.8163865,22.2373688 31.7286627,22.162212 C30.7527665,21.3254497 29.4740398,20.9364459 28.1287246,21.0675827 C26.6599433,21.2104704 25.3530633,22.0228332 24.5433118,23.2964189 C24.1565929,23.904773 23.983267,24.5381793 23.8304237,25.097 C23.8062691,25.1852134 23.7820328,25.2738348 23.7567357,25.362701 C22.6397471,29.2870131 21.0115126,31.4973253 19.4369731,33.6347656 C18.1908878,35.3262429 17.0140838,36.9238761 16.3564412,39.0928154 C16.3470568,39.1238247 16.3384885,39.1551604 16.3309809,39.186741 C16.0583437,40.3264154 15.9405082,41.4926925 15.9599299,42.8569398 C15.9665397,43.31955 15.7880729,43.7590664 15.4574155,44.0944568 C15.1195771,44.4371098 14.6708394,44.6257771 14.1937854,44.6257771 C13.4239381,44.6257771 12.7387951,44.1091454 12.5276053,43.3694913 C11.7906441,40.7878016 10.243197,38.340676 8.60492529,35.7498466 C7.05886548,33.3046795 5.46000821,30.7762768 4.69097688,28.2395506 C2.63465042,21.4569129 3.2506752,14.7659976 4.12946324,10.3474132 C4.25815195,9.69964467 4.89335355,9.27171594 5.54299897,9.39403958 C6.31806896,9.54043625 6.58825813,10.2502234 6.54680355,10.8555582 C6.52330175,11.1988641 6.49784146,11.5877047 6.45100105,12.0362791 C5.02489838,25.6939296 10.2875893,32.0935204 10.3509953,32.1941375 C10.6612517,32.6868594 11.1915113,32.9568038 11.7336033,32.9568038 C12.0308848,32.9568038 12.3315937,32.8756899 12.6017012,32.7056283 C13.3645307,32.2253917 13.5934285,31.2176701 13.1132735,30.4549223 C11.7535145,28.2952858 11.6144622,26.8346648 11.6526526,26.1562134 C11.689619,25.4976732 11.9150078,24.9593349 12.2871198,24.6401021 C12.5905216,24.3800317 12.9803415,24.2709279 13.4462158,24.3164626 C14.0468991,24.3748907 14.4014663,24.7464314 14.5930713,25.0477115 C14.7159662,25.2410302 14.8114423,25.5898851 14.9123858,25.9592225 C14.9393965,26.0578812 14.9665705,26.1570294 14.9948053,26.2563409 C15.2827841,27.2683058 15.6610979,28.3377196 16.0887002,29.3488685 C16.4399216,30.1791025 17.3973754,30.5674535 18.2276094,30.2163137 C19.0578433,29.8651738 19.4461943,28.9076384 19.0951361,28.0774861 C18.7186176,27.1871919 18.3863282,26.2484253 18.1343366,25.3627826 C18.1091211,25.2743244 18.0850481,25.1859478 18.060975,25.0979793 C17.9080501,24.5388321 17.7346426,23.9050994 17.3477605,23.2963373 C16.538009,22.0228332 15.231129,21.2103888 13.7623477,21.0675011 C12.4161349,20.9365275 11.1382242,21.3253681 10.1624096,22.1621303 C10.0747674,22.2372872 9.99120545,22.3166874 9.90943875,22.3979644 C9.17753701,18.4133474 9.49521941,14.7261751 9.70314512,12.3169951 C9.74166197,11.8715217 9.77789392,11.4506925 9.80343581,11.0785805 C9.96794846,8.67266469 8.41005614,6.61136042 6.14719124,6.18645102 C3.74551879,5.73575492 1.40406973,7.31682263 0.927913336,9.71082435 C-0.0235834099,14.495074 -0.68514294,21.7576218 1.56719511,29.1867224 C2.46458874,32.1469707 4.18364796,34.8655095 5.84607435,37.4945293 C7.35524937,39.8812683 8.78078082,42.1355649 9.38889006,44.2657425 C9.99806015,46.3996739 11.9739256,47.8900801 14.1937038,47.8900801 C15.5515044,47.8900801 16.8258245,47.3559852 17.7818095,46.3862093 C18.7308581,45.4236145 19.2428384,44.1537009 19.2237432,42.810589 C19.2084834,41.7448473 19.294575,40.8481881 19.4942588,39.9938812 C19.993101,38.383273 20.9540637,37.0789227 22.0649321,35.5708901 C23.6477135,33.4221885 25.6176218,30.7482052 26.8960222,26.2565857 C26.9244202,26.1570294 26.9516757,26.0575548 26.9787681,25.9585697 C27.0797116,25.5895587 27.1750245,25.2409486 27.2978378,25.0478747 C27.4894428,24.746513 27.8439284,24.3749723 28.4446933,24.3165442 C28.9105676,24.2712543 29.3004691,24.3801949 29.6037893,24.6402653 C29.9759829,24.9594165 30.2012901,25.4978364 30.2382565,26.1563766 C30.2764469,26.834828 30.1373946,28.295449 28.7776355,30.4550855 C28.297399,31.2178333 28.5263784,32.2255549 29.2892078,32.7057915 C30.0519557,33.1859464 31.0595957,32.9571302 31.5399138,32.1942192 C31.6033197,32.093602 37.0950717,25.6940112 35.4399896,12.0368504 C35.3857233,11.5889288 35.3676889,11.1991905 35.3441871,10.855803 C35.3027326,10.2504683 35.5886712,9.5369273 36.3157583,9.40040465 L36.34587,9.39477401 C36.9978004,9.27228717 37.6328387,9.70054231 37.7617723,10.3491269 C38.6403971,14.7673849 39.2561771,21.4576474 37.1999322,28.2399586 C36.4318801,30.7733391 34.836695,33.3194497 33.2939809,35.781672 C31.0521697,39.3596588 28.9347223,42.7392675 28.9347223,46.3680933 C28.9347223,47.2694855 29.6654,48.0001632 30.5667922,48.0001632 C31.4681844,48.0001632 32.198862,47.2694855 32.198862,46.3680933 C32.198862,43.6773813 34.0743552,40.6839203 36.060013,37.5146854 C37.7164823,34.870977 39.4292581,32.1372599 40.3236324,29.1869672 C42.5758072,21.758193 41.9145741,14.4962165 40.9632406,9.71237481 Z" id="Path" fill="#4831F2"></path>
                        <g id="search-copy-2" transform="translate(13.550000, -0.000000)">
                            <path d="M12.8170364,19.7731364 C12.0903273,19.7731364 11.4267818,19.2854182 11.2347545,18.5493818 C10.8572455,17.1018545 9.54054545,16.0909091 8.03288182,16.0909091 L7.11758182,16.0909091 C5.60991818,16.0909091 4.29321818,17.1018545 3.91562727,18.5493818 C3.68743636,19.4238545 2.79365455,19.9476545 1.91918182,19.7197909 C1.04470909,19.4916818 0.520745455,18.5978182 0.748854545,17.7234273 C1.50223636,14.8353273 4.12115455,12.8182636 7.11758182,12.8182636 L8.03288182,12.8182636 C11.0293091,12.8182636 13.6482273,14.8353273 14.4016091,17.7234273 C14.6297182,18.5979 14.1057545,19.4916818 13.2312818,19.7197909 C13.0927636,19.7558727 12.9537545,19.7731364 12.8170364,19.7731364 Z" id="Shape" fill="#FF5CF3"></path>
                            <path d="M7.82064545,11.0181818 C4.97844545,11.0181818 2.6661,8.70583636 2.6661,5.86363636 C2.6661,3.02143636 4.97844545,0.709090909 7.82064545,0.709090909 C10.6628455,0.709090909 12.9751909,3.02143636 12.9751909,5.86363636 C12.9751909,8.70583636 10.6629273,11.0181818 7.82064545,11.0181818 L7.82064545,11.0181818 Z M7.82064545,3.98181818 C6.78302727,3.98181818 5.93882727,4.82601818 5.93882727,5.86363636 C5.93882727,6.90125455 6.78302727,7.74545455 7.82064545,7.74545455 C8.85826364,7.74545455 9.70246364,6.90125455 9.70246364,5.86363636 C9.70246364,4.82601818 8.85834545,3.98181818 7.82064545,3.98181818 Z" id="Combined-Shape" fill="#4831F2"></path>
                        </g>
                    </g>
                </g>
            </g>
        </g>
    </g>
</svg>