<?xml version="1.0" encoding="UTF-8"?>
<svg width="48px" height="48px" viewBox="0 0 48 48" version="1.1" xmlns="http://www.w3.org/2000/svg" xmlns:xlink="http://www.w3.org/1999/xlink">
    <title>search</title>
    <g id="Home" stroke="none" stroke-width="1" fill="none" fill-rule="evenodd">
        <g id="Home-1600" transform="translate(-213.000000, -1084.000000)" fill-rule="nonzero">
            <g id="Why-you-need-Hypelitix" transform="translate(70.000000, 922.000000)">
                <g id="search" transform="translate(143.000000, 162.000000)">
                    <path d="M7.6059375,19.78125 C7.6059375,10.8162188 14.1943125,3.39 22.7934375,2.08021875 C21.9069375,1.945125 20.9989687,1.875 20.0746875,1.875 C10.185375,1.875 2.1684375,9.8919375 2.1684375,19.78125 C2.1684375,29.6705625 10.185375,37.6875 20.0746875,37.6875 C20.9989687,37.6875 21.9069375,37.617375 22.7934375,37.482375 C14.1944063,36.1725 7.6059375,28.746375 7.6059375,19.78125 Z" id="Path" fill="#C6E1F2"></path>
                    <path d="M19.78125,39.5625 C8.8738125,39.5625 0,30.6886875 0,19.78125 C0,8.8738125 8.8738125,0 19.78125,0 C30.6886875,0 39.5625,8.8738125 39.5625,19.78125 C39.5625,30.6886875 30.6886875,39.5625 19.78125,39.5625 Z M19.78125,3.75 C10.9415625,3.75 3.75,10.9415625 3.75,19.78125 C3.75,28.6209375 10.9415625,35.8125 19.78125,35.8125 C28.6209375,35.8125 35.8125,28.6209375 35.8125,19.78125 C35.8125,10.9415625 28.6209375,3.75 19.78125,3.75 Z M19.9611562,20.625 C16.7044687,20.625 14.0549063,17.9754375 14.0549063,14.71875 C14.0549063,11.4620625 16.7044687,8.8125 19.9611562,8.8125 C23.2178437,8.8125 25.8674062,11.4620625 25.8674062,14.71875 C25.8674062,17.9754375 23.2179375,20.625 19.9611562,20.625 L19.9611562,20.625 Z M19.9611562,12.5625 C18.7722188,12.5625 17.8049062,13.5298125 17.8049062,14.71875 C17.8049062,15.9076875 18.7722188,16.875 19.9611562,16.875 C21.1500937,16.875 22.1174062,15.9076875 22.1174062,14.71875 C22.1174062,13.5298125 21.1501875,12.5625 19.9611562,12.5625 Z" id="Shape" fill="#4831F2"></path>
                    <path d="M25.6861875,30.6567187 C24.8535,30.6567187 24.0931875,30.097875 23.8731563,29.2545 C23.4405938,27.595875 21.931875,26.4375 20.2043438,26.4375 L19.1555625,26.4375 C17.4280313,26.4375 15.9193125,27.595875 15.4866563,29.2545 C15.2251875,30.2565 14.2010625,30.8566875 13.1990625,30.5955937 C12.1970625,30.3342187 11.5966875,29.31 11.8580625,28.3080938 C12.7213125,24.9988125 15.7221563,22.6875938 19.1555625,22.6875938 L20.2043438,22.6875938 C23.63775,22.6875938 26.6385938,24.9988125 27.5018437,28.3080938 C27.7632188,29.3100938 27.1628438,30.3342188 26.1608438,30.5955937 C26.002125,30.6369375 25.8428438,30.6567187 25.6861875,30.6567187 Z M47.4545625,47.4471563 C48.1847813,46.7129063 48.1814063,45.52575 47.4471562,44.7955312 L39.0096563,36.4049062 C38.2754063,35.6746875 37.08825,35.6781563 36.3580313,36.4123125 C35.6278125,37.1465625 35.6311875,38.3337188 36.3654375,39.0639375 L44.8029375,47.4545625 C45.1686563,47.8184062 45.6467813,48 46.125,48 C46.6065,48 47.0880938,47.8155 47.4545625,47.4471563 Z" id="Shape" fill="#FF5CF3"></path>
                </g>
            </g>
        </g>
    </g>
</svg>