<?xml version="1.0" encoding="UTF-8"?>
<svg width="24px" height="22px" viewBox="0 0 24 22" version="1.1" xmlns="http://www.w3.org/2000/svg" xmlns:xlink="http://www.w3.org/1999/xlink">
    <title>icon/telegram</title>
    <defs>
        <filter id="filter-1">
            <feColorMatrix in="SourceGraphic" type="matrix" values="0 0 0 0 0.000000 0 0 0 0 0.000000 0 0 0 0 0.000000 0 0 0 1.000000 0"></feColorMatrix>
        </filter>
    </defs>
    <g id="Home" stroke="none" stroke-width="1" fill="none" fill-rule="evenodd">
        <g id="Home-2550" transform="translate(-1865.000000, -42.000000)">
            <g id="Header" transform="translate(0.000000, 0.000000)">
                <g id="Top" transform="translate(545.000000, 34.000000)">
                    <g id="icon/telegram" transform="translate(1319.000000, 6.000000)" filter="url(#filter-1)">
                        <g id="telegram-logo" transform="translate(1.083333, 2.166667)" fill="#000000" fill-rule="nonzero">
                            <path d="M19.1332746,21.2588316 C18.9476254,21.2588316 18.7632307,21.2038895 18.6050526,21.0966395 L12.6290325,17.0429658 L9.42382544,19.3492798 C9.17244649,19.5300368 8.8484386,19.5755711 8.55654298,19.4712061 C8.26502368,19.3665904 8.04362456,19.1251211 7.96459825,18.8256991 L6.35522105,12.7266237 L0.604739474,10.5278105 C0.242723684,10.3893263 0.00263421053,10.0429904 -2.18899551e-05,9.65538509 C-0.00263421053,9.26777982 0.232688596,8.91818246 0.592948246,8.77480614 L22.4584009,0.0743850877 C22.5576228,0.0322377193 22.6626149,0.00790263158 22.7684851,0.00137982456 C22.8063675,-0.000878070175 22.8443754,-0.000878070175 22.8821325,0.00125438596 C23.1013991,0.0143 23.3167772,0.103612281 23.4848649,0.268438596 C23.5023009,0.285498246 23.5188588,0.302934211 23.5345386,0.321122807 C23.6737754,0.480178947 23.750293,0.674107018 23.7647184,0.871672807 C23.7682307,0.921346491 23.7679798,0.971647368 23.7635895,1.02194825 C23.7605789,1.05782368 23.755436,1.09357368 23.7481605,1.12907281 L20.0573807,20.4941579 C19.9980482,20.8052456 19.7863079,21.0656561 19.4937851,21.1869553 C19.3777544,21.2351237 19.2552009,21.2588316 19.1332746,21.2588316 Z M13.1537421,15.1252605 L18.4769798,18.7360105 L21.3487711,3.66782456 L10.9766298,13.6484719 L13.1286544,15.1083263 C13.1373096,15.1137202 13.1455886,15.1194904 13.1537421,15.1252605 Z M8.72237281,14.3223281 L9.43511491,17.0230211 L10.9707342,15.9180325 L8.95995351,14.5540132 C8.86650175,14.4907921 8.78647193,14.4120167 8.72237281,14.3223281 Z M3.52934035,9.63142632 L7.47789649,11.1410798 C7.76076053,11.2492079 7.97425702,11.4870395 8.05152719,11.7798132 L8.55227807,13.6775737 C8.57523333,13.4586833 8.67445526,13.2527132 8.83564386,13.0975456 L18.7188254,3.58754386 L3.52934035,9.63142632 Z" id="Shape"></path>
                        </g>
                    </g>
                </g>
            </g>
        </g>
    </g>
</svg>