<?xml version="1.0" encoding="UTF-8"?>
<svg width="48px" height="48px" viewBox="0 0 48 48" version="1.1" xmlns="http://www.w3.org/2000/svg" xmlns:xlink="http://www.w3.org/1999/xlink">
    <title>video-player (2)</title>
    <g id="Home" stroke="none" stroke-width="1" fill="none" fill-rule="evenodd">
        <g id="Home-1600" transform="translate(-274.000000, -4923.000000)" fill-rule="nonzero">
            <g id="Why-choose-us" transform="translate(94.000000, 4762.000000)">
                <g id="1" transform="translate(0.000000, 161.000000)">
                    <g id="video-player-(2)" transform="translate(180.000000, 0.000000)">
                        <path d="M13.8222187,33.9220312 L11.25,33.9375 C6.07228125,33.9375 1.875,29.7402187 1.875,24.5625 L1.875,11.25 C1.875,6.07228125 6.072375,1.875 11.25,1.875 L15.6773438,1.8586875 C11.0653125,2.45934375 7.5,6.478125 7.5,11.25 L7.5,24.5625 C7.5,28.69125 10.1693437,32.1959062 13.8760313,33.4467187 C13.8585937,33.6051562 13.8405938,33.7635937 13.8222187,33.9220312 Z M25.21875,37.59375 C25.21875,32.8820625 29.0383125,29.0625 33.75,29.0625 L28.125,29.0625 C23.4133125,29.0625 19.59375,32.8820625 19.59375,37.59375 C19.59375,42.3054375 23.4133125,46.125 28.125,46.125 L33.75,46.125 C29.0384063,46.125 25.21875,42.3054375 25.21875,37.59375 Z" id="Shape" fill="#CEE1F2"></path>
                        <path d="M12.75,35.8125 L11.25,35.8125 C5.04684375,35.8125 0,30.76575 0,24.5625 L0,11.25 C0,5.04675 5.04684375,0 11.25,0 L36.75,0 C42.95325,0 48,5.04675 48,11.25 L48,24.5625 C48,25.5980625 47.1605625,26.4375 46.125,26.4375 C45.0894375,26.4375 44.25,25.5980625 44.25,24.5625 L44.25,11.25 C44.25,7.1145 40.8855,3.75 36.75,3.75 L11.25,3.75 C7.1145,3.75 3.75,7.1145 3.75,11.25 L3.75,24.5625 C3.75,28.698 7.1145,32.0625 11.25,32.0625 L12.75,32.0625 C13.7855625,32.0625 14.625,32.9019375 14.625,33.9375 C14.625,34.9730625 13.7855625,35.8125 12.75,35.8125 Z M46.8425625,47.8573125 C47.5431562,47.5670625 48,46.8833437 48,46.125 L48,37.59375 C48,31.8556875 43.3318125,27.1875 37.59375,27.1875 L28.125,27.1875 C22.3869375,27.1875 17.71875,31.8556875 17.71875,37.59375 C17.71875,43.3318125 22.3869375,48.0000937 28.125,48.0000937 L35.6709375,48.0000937 L35.6773125,48.0000937 C37.6140937,48.0000937 39.4649062,47.5675312 41.178,46.7145937 C41.6627812,46.4732812 42.1879687,46.4074687 42.70425,46.4074687 C44.25,46.4074687 44.8918125,48.0000937 46.125375,48.0000937 C46.3669687,48.0000937 46.610625,47.9533125 46.8425625,47.8573125 L46.8425625,47.8573125 Z M37.59375,30.9375 C41.2639688,30.9375 44.25,33.9235312 44.25,37.59375 L44.25,42.8789062 C42.6995625,42.4647188 41.0139375,42.6072188 39.506625,43.3576875 C38.3173125,43.9497188 37.029,44.25 35.676375,44.25 C35.674875,44.25 35.673375,44.25 35.671875,44.25 L28.125,44.25 C24.4547812,44.25 21.46875,41.2639688 21.46875,37.59375 C21.46875,33.9235312 24.4547812,30.9375 28.125,30.9375 L37.59375,30.9375 Z" id="Shape" fill="#4831F2"></path>
                        <path d="M21.3825,25.9729688 C20.6468437,25.9729688 19.9107187,25.7815313 19.236375,25.3978125 C17.875125,24.62325 17.0625,23.2295625 17.0625,21.6696563 L17.0625,14.3304375 C17.0625,12.7704375 17.875125,11.37675 19.236375,10.6021875 C20.6091562,9.82115625 22.239,9.8364375 23.5964063,10.6430625 L29.7715312,14.3127188 C31.0887187,15.0955313 31.875,16.4739375 31.875,18 C31.875,19.5260625 31.088625,20.9044688 29.7714375,21.687375 L23.5964062,25.3570313 C23.5963125,25.3570313 23.5963125,25.3570313 23.5963125,25.3570313 C22.9058437,25.7674688 22.1445,25.9729688 21.3825,25.9729688 Z M21.383625,13.7811563 C21.2584687,13.7811563 21.1554375,13.82475 21.0909375,13.8614063 C20.964,13.9336875 20.8125,14.07375 20.8125,14.3303438 L20.8125,21.6695625 C20.8125,21.9261563 20.9639063,22.066125 21.0909375,22.1385 C21.20175,22.2015 21.4257188,22.28475 21.6807188,22.1331563 L27.8556562,18.4635 C28.0783125,18.3312188 28.125,18.138375 28.125,17.9999063 C28.125,17.8614375 28.0783125,17.6685938 27.8556562,17.5363125 L21.680625,13.8666563 C21.5743125,13.8034688 21.47325,13.7811563 21.383625,13.7811563 L21.383625,13.7811563 Z M29.15625,35.25 C30.4506563,35.25 31.5,36.2993437 31.5,37.59375 C31.5,38.8881562 30.4506563,39.9375 29.15625,39.9375 C27.8618437,39.9375 26.8125,38.8881562 26.8125,37.59375 C26.8125,36.2993437 27.8618437,35.25 29.15625,35.25 Z M36.65625,35.25 C37.9506563,35.25 39,36.2993437 39,37.59375 C39,38.8881562 37.9506563,39.9375 36.65625,39.9375 C35.3618437,39.9375 34.3125,38.8881562 34.3125,37.59375 C34.3125,36.2993437 35.3618437,35.25 36.65625,35.25 Z" id="Shape" fill="#FF5CF3"></path>
                    </g>
                </g>
            </g>
        </g>
    </g>
</svg>