<?xml version="1.0" encoding="UTF-8"?>
<svg width="22px" height="24px" viewBox="0 0 22 24" version="1.1" xmlns="http://www.w3.org/2000/svg" xmlns:xlink="http://www.w3.org/1999/xlink">
    <title>icon/Vyber</title>
    <defs>
        <filter id="filter-1">
            <feColorMatrix in="SourceGraphic" type="matrix" values="0 0 0 0 0.000000 0 0 0 0 0.000000 0 0 0 0 0.000000 0 0 0 1.000000 0"></feColorMatrix>
        </filter>
    </defs>
    <g id="Home" stroke="none" stroke-width="1" fill="none" fill-rule="evenodd">
        <g id="Home-2550" transform="translate(-1982.000000, -41.000000)">
            <g id="Header" transform="translate(0.000000, 0.000000)">
                <g id="Top" transform="translate(545.000000, 34.000000)">
                    <g id="Social" transform="translate(1319.000000, 6.000000)">
                        <g id="icon/whatsapp-copy" transform="translate(116.000000, 0.000000)" filter="url(#filter-1)">
                            <g>
                                <path d="M4.47391447,3.55072921 C8.13704464,0.0721446015 18.4775491,0.503743091 21.539418,3.41976139 L21.539418,3.41976139 C23.4354748,5.1282961 24.487186,8.90354266 23.7767848,14.8834141 C23.0941647,20.6767557 18.8724369,21.2353533 18.1263173,21.4853828 C17.8038586,21.5925382 14.9662226,22.3267518 11.2713426,22.0062775 C9.0617568,24.6454774 8.74029034,25.0969195 8.02988915,24.8667337 C7.48642232,24.6957066 7.44659557,23.9298828 7.44513056,23.7410992 L7.44549487,23.6989373 L7.45045578,21.2988528 C2.04704112,19.727239 2.12244684,13.9338975 2.18594638,10.841271 C2.24944593,7.74963681 2.82887931,5.25231866 4.47391447,3.55072921 Z M20.3388796,4.62724498 C18.0290836,2.45635419 8.96353094,1.78266367 5.74985851,4.79591565 C4.35683718,6.21969458 3.88455929,8.33403109 3.83495027,10.9156846 C3.78534125,13.4963459 3.51546817,18.429467 8.09239652,19.7411296 C8.09239652,19.7411296 8.07708509,22.8825239 8.07481673,23.6023185 L8.07453727,23.7257262 C8.07056855,24.213879 8.331512,24.2366991 8.56963531,23.9906384 C9.29690357,23.2336047 11.6354729,20.3175864 11.6354729,20.3175864 C14.7687787,20.5269365 17.2641125,19.8849957 17.5329934,19.7956995 C18.1620358,19.5863494 21.5830739,19.2797657 22.1634995,14.4438782 C22.1575464,14.2027784 23.1626252,7.13051622 20.3388796,4.62724498 Z M8.54681516,6.178023 C8.95956222,5.9547824 9.35643439,6.02919594 9.62035439,6.35959202 C9.87137604,6.7108239 10.3644897,7.16821908 11.0987032,8.49476432 C11.3735372,9.00176852 11.2028822,9.51770235 10.9330091,9.73201332 L10.9330091,9.73201332 L10.3932629,10.1784945 C10.1194211,10.4057038 10.1561318,10.8293649 10.1561318,10.8293649 C10.1561318,10.8293649 10.9558293,13.958702 13.9462611,14.7494698 C13.9462611,14.7494698 14.3560316,14.7871726 14.5753035,14.503409 L14.5753035,14.503409 L15.006902,13.9448115 C15.2132755,13.6660087 15.7123423,13.4894006 16.2024794,13.7731642 C16.8632716,14.1591224 17.7046406,14.7593916 18.262246,15.3031065 C18.5767672,15.5680186 18.6482042,15.9728283 18.432901,16.400458 L18.432901,16.400458 C17.9477248,17.2914361 17.0388875,18.2677416 16.1042535,17.956197 L16.1042535,17.956197 L16.0953239,17.9423064 C15.1467994,17.6674724 12.9124091,16.4768559 11.5005363,15.3150126 C8.49621395,12.8583739 7.55364254,9.60699859 7.04068526,8.5870371 C6.74005458,7.61966117 7.67964946,6.6800663 8.53788553,6.178023 L8.53788553,6.178023 Z M12.9292761,5.36245068 C16.2431588,5.38527083 18.9081554,7.75261335 18.9399052,11.8354358 L18.9399052,11.8354358 C18.9458583,12.2352846 18.3604718,12.2402455 18.3604718,11.8403967 C18.333683,8.05125966 15.8929191,5.98554 12.9292761,5.96271985 C12.5472867,5.95775894 12.5472867,5.36245068 12.9292761,5.36245068 Z M13.4600927,6.92513487 C16.068535,7.12059442 17.4565955,8.97497965 17.4079786,11.2262371 C17.4030177,11.6260858 16.8186234,11.6072343 16.8275531,11.2123465 C16.8731934,9.24088401 15.6815847,7.69705125 13.4194133,7.52540403 C13.038416,7.49762298 13.0781032,6.89735382 13.4600927,6.92513487 Z M13.9006208,8.53941244 C15.1547369,8.60886507 15.8512475,9.35300039 15.9147471,10.6884753 C15.9326063,11.088324 15.3521808,11.116105 15.3343215,10.7162563 C15.2847125,9.69331828 14.8223564,9.19524371 13.868871,9.1396816 C13.4829128,9.11686145 13.5186313,8.51659229 13.9006208,8.53941244 Z" id="Combined-Shape" fill="#000000" fill-rule="nonzero"></path>
                            </g>
                        </g>
                    </g>
                </g>
            </g>
        </g>
    </g>
</svg>