<?xml version="1.0" encoding="UTF-8"?>
<svg width="24px" height="24px" viewBox="0 0 24 24" version="1.1" xmlns="http://www.w3.org/2000/svg" xmlns:xlink="http://www.w3.org/1999/xlink">
    <title>icon/whatsapp</title>
    <defs>
        <filter id="filter-1">
            <feColorMatrix in="SourceGraphic" type="matrix" values="0 0 0 0 0.000000 0 0 0 0 0.000000 0 0 0 0 0.000000 0 0 0 1.000000 0"></feColorMatrix>
        </filter>
    </defs>
    <g id="Home" stroke="none" stroke-width="1" fill="none" fill-rule="evenodd">
        <g id="Home-2550" transform="translate(-1923.000000, -41.000000)">
            <g id="Header" transform="translate(0.000000, 0.000000)">
                <g id="Top" transform="translate(545.000000, 34.000000)">
                    <g id="Social" transform="translate(1319.000000, 6.000000)">
                        <g id="icon/whatsapp" transform="translate(58.000000, 0.000000)" filter="url(#filter-1)">
                            <g id="whatsapp-(1)" transform="translate(1.083333, 1.083333)" fill="#000000" fill-rule="nonzero">
                                <path d="M17.3515339,14.2264094 L17.3426138,14.3007433 C15.1631414,13.2144761 14.9351839,13.0697726 14.6537059,13.4919896 C14.4584553,13.7843699 13.8895525,14.4474291 13.7180888,14.6436708 C13.5446428,14.8369391 13.372188,14.8518059 13.0778254,14.7180048 C12.7804895,14.5693368 11.8260412,14.2571341 10.6961646,13.2461919 C9.81605025,12.4582517 9.22534286,11.4919099 9.05090578,11.194574 C8.76050769,10.6930674 9.36806411,10.6217067 9.92110895,9.57508425 C10.0202209,9.3669491 9.96967381,9.20341434 9.89633095,9.05573749 C9.82199697,8.90706953 9.23029846,7.45012346 8.98251852,6.86932727 C8.74464977,6.29051332 8.49984319,6.36385618 8.31648603,6.36385618 C7.74560104,6.31430019 7.32833961,6.32222915 6.96063418,6.70480139 C5.36096686,8.46304787 5.76435261,10.2767971 7.13308902,12.2055161 C9.82298809,15.7259736 11.2561473,16.3741659 13.876668,17.2741027 C14.5843275,17.4990869 15.2295465,17.467371 15.7399731,17.3940282 C16.3088759,17.3038363 17.4912818,16.6794308 17.7380706,15.9806914 C17.9908062,15.2819519 17.9908062,14.7021468 17.9164722,14.5683457 C17.8431293,14.4345445 17.6488698,14.3602105 17.3515339,14.2264094 L17.3515339,14.2264094 Z" id="Path"></path>
                                <path d="M20.3377778,3.46483084 C12.7170578,-3.90216244 0.105058696,1.44096426 0.100103097,11.8338462 C0.100103097,13.9112333 0.644227854,15.9370821 1.68093914,17.7260533 L-1.32043679e-15,23.8333333 L6.27874377,22.1960035 C14.1135456,26.4280849 23.7829101,20.8084358 23.7868746,11.8397929 C23.7868746,8.69199653 22.5578861,5.72953953 20.322911,3.50348451 L20.3377778,3.46483084 Z M21.8066173,11.807086 C21.8006706,19.3723032 13.496078,24.0969712 6.92792723,20.2355686 L6.57112411,20.0234689 L2.85442495,20.9898107 L3.85050032,17.3771791 L3.6136227,17.0055092 C-0.473755252,10.4988079 4.22217024,1.99500022 11.9647979,1.99500022 C14.5952298,1.99500022 17.0641092,3.02080918 18.9234499,4.87915876 C20.7817994,6.72165042 21.8066173,9.19052978 21.8066173,11.807086 Z" id="Shape"></path>
                            </g>
                        </g>
                    </g>
                </g>
            </g>
        </g>
    </g>
</svg>