<svg id="ico" width="26px" height="18px" viewBox="0 0 26 18" version="1.1" xmlns="http://www.w3.org/2000/svg" xmlns:xlink="http://www.w3.org/1999/xlink">
    <defs>
        <rect id="path-1" x="0" y="0" width="25.2" height="18" rx="2"></rect>
    </defs>
    <g transform="translate(-730.000000, -928.000000)">
        <g transform="translate(514.000000, 885.000000)">
            <g transform="translate(206.000000, 34.000000)">
                <g transform="translate(10.000000, 9.000000)">
                    <mask id="mask-2" fill="white">
                        <use xlink:href="#path-1"></use>
                    </mask>
                    <use fill="#FFFFFF" xlink:href="#path-1"></use>
                    <rect fill="#0A17A7" mask="url(#mask-2)" x="0" y="0" width="25.2" height="18"></rect>
                    <path d="M26.3542223,-1.72480161 L27.6962852,0.264888567 L19.1937148,5.99919839 L25.2,6 L25.2,12 L19.1927148,11.9991984 L27.6962852,17.7351114 L26.3542223,19.7248016 L15.5997148,12.4701984 L15.6,19.2 L9.6,19.2 L9.59971475,12.4701984 L-1.15422228,19.7248016 L-2.49628525,17.7351114 L6.00671475,11.9991984 L1.88293825e-13,12 L1.88293825e-13,6 L6.00571475,5.99919839 L-2.49628525,0.264888567 L-1.15422228,-1.72480161 L9.59971475,5.52819839 L9.6,-1.2 L15.6,-1.2 L15.5997148,5.52819839 L26.3542223,-1.72480161 Z" id="Rectangle-2" fill="#FFFFFF" mask="url(#mask-2)"></path>
                    <line x1="16.8011719" y1="5.69897461" x2="28.2" y2="-1.8" id="Line" stroke="#DB1F35" stroke-width="0.666666667" stroke-linecap="round" mask="url(#mask-2)"></line>
                    <line x1="18.011499" y1="19.2153076" x2="28.2299561" y2="12.3277588" id="Line-Copy-2" stroke="#DB1F35" stroke-width="0.666666667" stroke-linecap="round" mask="url(#mask-2)" transform="translate(23.120728, 15.771533) scale(1, -1) translate(-23.120728, -15.771533) "></line>
                    <line x1="7.20498047" y1="5.67941895" x2="-3.45373535" y2="-1.50388184" id="Line-Copy" stroke="#DB1F35" stroke-width="0.666666667" stroke-linecap="round" mask="url(#mask-2)"></line>
                    <line x1="8.36103516" y1="20.0794189" x2="-3.45373535" y2="12.2444092" id="Line-Copy-3" stroke="#DB1F35" stroke-width="0.666666667" stroke-linecap="round" mask="url(#mask-2)" transform="translate(2.453650, 16.161914) scale(1, -1) translate(-2.453650, -16.161914) "></line>
                    <polygon fill="#E6273E" mask="url(#mask-2)" points="0 10.8 10.8 10.8 10.8 18 14.4 18 14.4 10.8 25.2 10.8 25.2 7.2 14.4 7.2 14.4 0 10.8 0 10.8 7.2 0 7.2"></polygon>
                </g>
            </g>
        </g>
    </g>
</svg>